<?xml version="1.0" encoding="UTF-8"?>
<svg version="1.1" xmlns="http://www.w3.org/2000/svg" width="503" height="496">
<path d="M0 0 C0.92414703 -0.00012085 1.84829407 -0.0002417 2.80044556 -0.00036621 C17.76484364 0.02745016 32.05887957 0.98336638 46.6875 4.375 C47.4393457 4.54580078 48.19119141 4.71660156 48.96582031 4.89257812 C53.25998975 5.89396194 57.47388621 7.07017223 61.6875 8.375 C62.66847656 8.67019531 63.64945312 8.96539062 64.66015625 9.26953125 C83.21855286 15.13927984 99.4228783 23.75574393 115.6875 34.375 C116.57179688 34.93574219 117.45609375 35.49648437 118.3671875 36.07421875 C119.19476563 36.60660156 120.02234375 37.13898438 120.875 37.6875 C121.61105469 38.15800781 122.34710938 38.62851563 123.10546875 39.11328125 C123.62753906 39.52964844 124.14960938 39.94601563 124.6875 40.375 C124.6875 41.035 124.6875 41.695 124.6875 42.375 C125.80354614 42.76437744 125.80354614 42.76437744 126.94213867 43.16162109 C129.75977596 44.40694411 131.40335726 45.67024917 133.61328125 47.7890625 C134.32806641 48.46839844 135.04285156 49.14773437 135.77929688 49.84765625 C136.51212891 50.55792969 137.24496094 51.26820312 138 52 C138.72123047 52.68707031 139.44246094 53.37414062 140.18554688 54.08203125 C156.5368788 69.71478446 169.91262912 86.46250761 180.6875 106.375 C181.28433594 107.47328125 181.88117188 108.5715625 182.49609375 109.703125 C197.4092868 138.26737003 203.94040056 170.25797234 203.8125 202.3125 C203.80911621 203.54162109 203.80573242 204.77074219 203.80224609 206.03710938 C203.60520113 240.55205454 193.90284471 272.7792301 178.171875 303.37109375 C176.9985517 305.74552959 176.02957059 307.99946111 175.1875 310.5 C173.22709586 316.14695028 170.07744771 321.47387078 166.6875 326.375 C166.0275 326.375 165.3675 326.375 164.6875 326.375 C164.43484375 326.95121094 164.1821875 327.52742188 163.921875 328.12109375 C159.15904711 336.81777632 149.33923392 342.94652928 141.60058594 348.88964844 C137.63176345 351.97110785 133.73700532 355.14731073 129.83740234 358.31567383 C119.83718025 366.375 119.83718025 366.375 116.6875 366.375 C116.6875 367.035 116.6875 367.695 116.6875 368.375 C100.24867914 380.82667147 79.63595554 390.05123116 59.9375 395.72558594 C57.94923799 396.29945497 55.97342907 396.91609443 54 397.5390625 C25.20064429 406.11341613 -5.90062692 406.88364334 -35.3125 401.375 C-36.65218761 401.14362538 -37.99202381 400.91310886 -39.33203125 400.68359375 C-65.42825166 395.90156383 -88.00482599 385.38720192 -110.3125 371.375 C-111.25867188 370.84519531 -112.20484375 370.31539063 -113.1796875 369.76953125 C-113.88351563 369.30933594 -114.58734375 368.84914063 -115.3125 368.375 C-115.3125 367.715 -115.3125 367.055 -115.3125 366.375 C-116.37597656 366.01921875 -116.37597656 366.01921875 -117.4609375 365.65625 C-120.79441284 364.1584693 -123.15389132 362.23684979 -125.9375 359.875 C-128.68501375 357.55655004 -131.31995988 355.37002675 -134.3125 353.375 C-134.3125 352.715 -134.3125 352.055 -134.3125 351.375 C-134.90579102 351.10623047 -135.49908203 350.83746094 -136.11035156 350.56054688 C-138.31790033 349.37209268 -139.77792882 348.16757611 -141.546875 346.40625 C-142.40732422 345.54966797 -142.40732422 345.54966797 -143.28515625 344.67578125 C-143.87167969 344.08152344 -144.45820313 343.48726563 -145.0625 342.875 C-145.66449219 342.28074219 -146.26648438 341.68648438 -146.88671875 341.07421875 C-147.73943359 340.21763672 -147.73943359 340.21763672 -148.609375 339.34375 C-149.12854492 338.82232422 -149.64771484 338.30089844 -150.18261719 337.76367188 C-151.3125 336.375 -151.3125 336.375 -151.3125 334.375 C-151.9725 334.375 -152.6325 334.375 -153.3125 334.375 C-154.57421875 333.06835938 -154.57421875 333.06835938 -156 331.21875 C-156.52883789 330.53425781 -157.05767578 329.84976562 -157.60253906 329.14453125 C-158.16682617 328.39558594 -158.73111328 327.64664062 -159.3125 326.875 C-159.89483398 326.10542969 -160.47716797 325.33585937 -161.07714844 324.54296875 C-181.28604132 297.47966234 -195.12969922 266.84010435 -200.3125 233.375 C-200.51746094 232.21097656 -200.72242188 231.04695312 -200.93359375 229.84765625 C-208.59756086 180.32257225 -195.21711863 132.76584023 -170.3125 90.375 C-169.6525 90.375 -168.9925 90.375 -168.3125 90.375 C-168.06628906 89.66730469 -167.82007813 88.95960938 -167.56640625 88.23046875 C-163.78008174 79.60802883 -156.42482705 72.16218423 -150.0625 65.3359375 C-148.26025592 63.48874507 -148.26025592 63.48874507 -147.3125 61.375 C-146.6525 61.375 -145.9925 61.375 -145.3125 61.375 C-145.3125 60.715 -145.3125 60.055 -145.3125 59.375 C-144.6525 59.375 -143.9925 59.375 -143.3125 59.375 C-143.3125 58.715 -143.3125 58.055 -143.3125 57.375 C-141.80859375 55.859375 -141.80859375 55.859375 -139.75 54.125 C-138.66138672 53.20267578 -138.66138672 53.20267578 -137.55078125 52.26171875 C-136.81214844 51.63910156 -136.07351562 51.01648438 -135.3125 50.375 C-134.64605469 49.78332031 -133.97960937 49.19164062 -133.29296875 48.58203125 C-132.68066406 48.03933594 -132.06835938 47.49664062 -131.4375 46.9375 C-130.88320312 46.44378906 -130.32890625 45.95007813 -129.7578125 45.44140625 C-128.3125 44.375 -128.3125 44.375 -126.3125 44.375 C-126.3125 43.715 -126.3125 43.055 -126.3125 42.375 C-124.57519531 40.97387695 -124.57519531 40.97387695 -122.140625 39.36328125 C-121.25528076 38.77385742 -120.36993652 38.18443359 -119.45776367 37.57714844 C-118.50232666 36.95356445 -117.54688965 36.32998047 -116.5625 35.6875 C-115.58966064 35.04973633 -114.61682129 34.41197266 -113.61450195 33.75488281 C-110.85269756 31.95289368 -108.08299873 30.16357695 -105.3125 28.375 C-104.24902344 27.67246094 -103.18554688 26.96992187 -102.08984375 26.24609375 C-87.13417559 16.88470267 -69.40516674 10.58273539 -52.3125 6.375 C-51.20334229 6.10115479 -51.20334229 6.10115479 -50.07177734 5.82177734 C-47.75955903 5.26119514 -45.44408136 4.71894584 -43.125 4.1875 C-42.44904785 4.0323291 -41.7730957 3.8771582 -41.07666016 3.71728516 C-38.82806559 3.22785691 -36.5758108 2.79139414 -34.3125 2.375 C-33.33821045 2.19549805 -32.3639209 2.01599609 -31.36010742 1.83105469 C-20.91103015 0.1175133 -10.5670236 -0.02124049 0 0 Z " fill="#8E954E" transform="translate(257.3125,61.625)"/>
<path d="M0 0 C2.48420214 2.159025 4.76421807 4.38259802 7.00390625 6.79296875 C7.63554687 7.46714844 8.2671875 8.14132813 8.91796875 8.8359375 C21.0089038 23.03080178 24.09708281 39.93860164 23.2421875 58.05322266 C22.3067856 68.80842774 17.96600162 79.51561607 11.00390625 87.79296875 C10.34390625 87.79296875 9.68390625 87.79296875 9.00390625 87.79296875 C8.62805877 88.65637548 8.62805877 88.65637548 8.24461842 89.53722477 C6.83324136 92.1032553 5.22591367 93.81693419 3.1525116 95.88487244 C1.94758812 97.09391991 1.94758812 97.09391991 0.71832275 98.32739258 C-0.16430237 99.20282715 -1.04692749 100.07826172 -1.95629883 100.98022461 C-2.88490219 101.90912003 -3.81350555 102.83801544 -4.77024841 103.7950592 C-7.31551226 106.34089693 -9.86689772 108.8805188 -12.41941667 111.41907954 C-15.09257513 114.07971905 -17.76005545 116.74603894 -20.42814636 119.41175842 C-25.486151 124.46354507 -30.54922962 129.51021453 -35.61415166 134.55506474 C-41.35978912 140.27841767 -47.09981517 146.00738392 -52.83934176 151.73686397 C-62.65649368 161.53664104 -72.47786071 171.33217501 -82.30392456 181.12301636 C-86.20456522 185.00976825 -90.10333732 188.89832157 -93.99609375 192.79296875 C-95.31311757 194.09964862 -96.6307944 195.40567075 -97.94921875 196.7109375 C-99.38156068 198.134064 -100.81385126 199.55724218 -102.24609375 200.98046875 C-103.344375 202.06618164 -103.344375 202.06618164 -104.46484375 203.17382812 C-105.50898438 204.21313477 -105.50898438 204.21313477 -106.57421875 205.2734375 C-107.52409668 206.21546021 -107.52409668 206.21546021 -108.49316406 207.17651367 C-110.0853435 208.73687203 -110.0853435 208.73687203 -110.99609375 210.79296875 C-111.65609375 210.79296875 -112.31609375 210.79296875 -112.99609375 210.79296875 C-113.32609375 211.78296875 -113.65609375 212.77296875 -113.99609375 213.79296875 C-125.99170645 225.24332633 -141.32174039 229.38768302 -157.49609375 229.23046875 C-159.14291138 229.21910889 -159.14291138 229.21910889 -160.82299805 229.20751953 C-168.53240986 229.05021974 -175.00818924 228.2171493 -181.99609375 224.79296875 C-182.96933594 224.39207031 -183.94257813 223.99117187 -184.9453125 223.578125 C-196.07444466 218.66192706 -205.49647048 210.07718278 -211.99609375 199.79296875 C-212.4446875 199.0865625 -212.89328125 198.38015625 -213.35546875 197.65234375 C-216.54752572 192.28217731 -218.51205636 186.84944566 -219.99609375 180.79296875 C-220.18171875 180.08011719 -220.36734375 179.36726562 -220.55859375 178.6328125 C-221.22678542 174.29553264 -221.22138732 169.98777104 -221.24609375 165.60546875 C-221.26671875 164.71021484 -221.28734375 163.81496094 -221.30859375 162.89257812 C-221.40482159 146.2331341 -212.99074677 132.102235 -201.58930397 120.53264236 C-199.64540587 118.59811118 -197.68487521 116.68155576 -195.72265625 114.765625 C-194.34743483 113.39840624 -192.97362981 112.02976148 -191.60116577 110.65977478 C-188.7489882 107.81972971 -185.88595175 104.99133243 -183.01318359 102.17211914 C-179.32539405 98.55286174 -175.65794905 94.91380863 -171.9972477 91.26717472 C-168.49573556 87.78073361 -164.98462427 84.30402816 -161.47265625 80.828125 C-160.80358875 80.16433397 -160.13452126 79.50054295 -159.44517899 78.81663704 C-157.56459918 76.95441131 -155.67733681 75.09926248 -153.78759766 73.24633789 C-153.22761078 72.69015778 -152.6676239 72.13397766 -152.09066772 71.5609436 C-148.22573953 67.79296875 -148.22573953 67.79296875 -145.99609375 67.79296875 C-145.76857422 67.24078674 -145.54105469 66.68860474 -145.30664062 66.11968994 C-143.61030936 63.10805414 -141.47052206 61.0128646 -139.02734375 58.56542969 C-138.52307861 58.05765991 -138.01881348 57.54989014 -137.49926758 57.0267334 C-135.83652839 55.35521436 -134.16660752 53.69109025 -132.49609375 52.02734375 C-131.33759768 50.86750038 -130.17939863 49.70736025 -129.02148438 48.54693604 C-126.59698939 46.11949522 -124.16892013 43.69570241 -121.73828125 41.27441406 C-118.61745933 38.16501178 -115.50573511 35.04668363 -112.39660645 31.92559433 C-110.0085245 29.53030092 -107.61571882 27.13977231 -105.22143555 24.75067902 C-104.07166561 23.60224623 -102.92338773 22.4523177 -101.77661133 21.30089569 C-100.17746656 19.69669466 -98.57209125 18.09900683 -96.96484375 16.50292969 C-96.05154297 15.59122009 -95.13824219 14.6795105 -94.19726562 13.74017334 C-91.99609375 11.79296875 -91.99609375 11.79296875 -89.99609375 11.79296875 C-89.76792969 11.23351562 -89.53976563 10.6740625 -89.3046875 10.09765625 C-82.59238969 -1.72400257 -67.46387682 -8.5620272 -54.99609375 -12.20703125 C-35.56525538 -16.32211764 -15.91419378 -11.72297195 0 0 Z " fill="#354C22" transform="translate(328.99609375,131.20703125)"/>
<path d="M0 0 C2.37737335 0.00664309 4.75475848 0.0098684 7.13214111 0.00984192 C12.10889428 0.01911979 17.08418334 0.0582762 22.06054688 0.12084961 C28.40982416 0.1999288 34.75765101 0.22250165 41.10737228 0.22469616 C46.0165596 0.22969362 50.92544227 0.25605138 55.8345108 0.28957558 C58.17383639 0.30472255 60.5131952 0.31545342 62.85256195 0.32152367 C82.88926113 0.40404686 98.05175828 2.37230495 113.203125 16.76953125 C124.6421709 28.71778746 130.26968833 42.1584667 130.08007812 58.62109375 C130.05880859 59.57757813 130.03753906 60.5340625 130.015625 61.51953125 C129.98129615 63.46737563 129.9511317 65.41529933 129.92578125 67.36328125 C129.90781494 68.21083984 129.88984863 69.05839844 129.87133789 69.93164062 C129.81197087 72.08044058 129.81197087 72.08044058 130.953125 74.01953125 C128.84447085 81.80294582 124.53831763 89.44666891 119.953125 96.01953125 C119.293125 96.01953125 118.633125 96.01953125 117.953125 96.01953125 C117.70175781 96.59445312 117.45039063 97.169375 117.19140625 97.76171875 C112.26917363 106.73664132 102.0386349 113.0335046 93.953125 119.01953125 C93.293125 118.35953125 92.633125 117.69953125 91.953125 117.01953125 C88.94055436 117.67679489 88.94055436 117.67679489 85.43815613 118.86317444 C76.64197243 121.44783477 68.3005184 121.57908806 59.19262695 121.52124023 C57.46605999 121.5250337 55.7394961 121.53054214 54.01293945 121.53761292 C49.37047581 121.55144777 44.72838774 121.5404843 40.08594537 121.5239017 C35.20289919 121.50993902 30.31987235 121.51652369 25.43681335 121.52003479 C17.24386621 121.52272735 9.05106638 121.5093412 0.8581543 121.48608398 C-8.58788471 121.45945364 -18.03367804 121.45773924 -27.47974175 121.46947235 C-36.60526309 121.48028229 -45.73069634 121.47403958 -54.85621071 121.45991707 C-58.72313352 121.4541878 -62.58999122 121.45421563 -66.4569149 121.45898247 C-71.01502489 121.46378428 -75.57286861 121.45351908 -80.13092804 121.43202782 C-81.79488795 121.42650414 -83.45887368 121.42595354 -85.12283516 121.43098068 C-103.62201508 121.47982736 -118.93855804 117.84196153 -132.63671875 104.65625 C-138.89913459 97.80514677 -145.046875 87.55725733 -145.046875 78.01953125 C-139.766875 78.34953125 -134.486875 78.67953125 -129.046875 79.01953125 C-128.53125 80.50453125 -128.015625 81.98953125 -127.484375 83.51953125 C-123.66247236 92.94777889 -117.19073447 98.72622327 -108.046875 103.01953125 C-101.9850239 105.43825624 -96.63680381 106.46390174 -90.13061523 106.4519043 C-89.27708245 106.46217809 -88.42354967 106.47245188 -87.54415226 106.48303699 C-84.81451659 106.51263684 -82.0852419 106.52242141 -79.35546875 106.53125 C-77.6569292 106.54673697 -75.95840111 106.56353754 -74.2598877 106.58166504 C-68.00150963 106.6393323 -61.74291893 106.67168388 -55.484375 106.70703125 C-34.4778125 106.86171875 -34.4778125 106.86171875 -13.046875 107.01953125 C-13.046875 77.31953125 -13.046875 47.61953125 -13.046875 17.01953125 C-21.626875 17.01953125 -30.206875 17.01953125 -39.046875 17.01953125 C-37.066875 14.70953125 -35.086875 12.39953125 -33.046875 10.01953125 C-32.48280945 9.15608597 -31.9187439 8.29264069 -31.33758545 7.4030304 C-24.00284415 -2.55411717 -11.06987535 -0.17216062 0 0 Z " fill="#354C22" transform="translate(304.046875,291.98046875)"/>
<path d="M0 0 C0 0.66 0 1.32 0 2 C0.54140625 2.2165625 1.0828125 2.433125 1.640625 2.65625 C4.81645344 4.46499997 7.20728081 6.91723799 9.75 9.5 C10.25660156 9.99886719 10.76320313 10.49773437 11.28515625 11.01171875 C15 14.74658861 15 14.74658861 15 17 C16.32 17.66 17.64 18.32 19 19 C19 19.66 19 20.32 19 21 C20.485 21.495 20.485 21.495 22 22 C22 22.66 22 23.32 22 24 C23.485 24.495 23.485 24.495 25 25 C25 25.66 25 26.32 25 27 C25.598125 27.268125 26.19625 27.53625 26.8125 27.8125 C28.99847854 28.99917406 30.41332594 30.09599113 32 32 C32 32.66 32 33.32 32 34 C33.485 34.495 33.485 34.495 35 35 C35 35.66 35 36.32 35 37 C36.485 37.495 36.485 37.495 38 38 C38 38.66 38 39.32 38 40 C38.66 40 39.32 40 40 40 C43.54757898 43.2519474 46.61045313 46.83590618 49.66796875 50.546875 C50.9579691 52.12779183 50.9579691 52.12779183 53 53 C53 53.66 53 54.32 53 55 C54.485 55.495 54.485 55.495 56 56 C57.34919532 57.65385233 58.68133728 59.321702 60 61 C62.12603185 62.76323505 62.12603185 62.76323505 64 64 C62.52011778 67.43732937 60.58715467 69.65079673 57.93676758 72.27441406 C57.09862015 73.10918274 56.26047272 73.94395142 55.39692688 74.80401611 C54.48863632 75.69884705 53.58034576 76.59367798 52.64453125 77.515625 C51.21550872 78.93669761 49.7864889 80.35777295 48.3576231 81.77900314 C46.35394015 83.76956154 44.34575947 85.7555519 42.33752441 87.74151611 C38.36284983 91.67308108 34.39472299 95.6112215 30.43008995 99.55290985 C29.05510869 100.91780845 27.67650359 102.27905338 26.29780579 103.64019775 C21.82440944 108.07938039 17.50080143 112.57031936 13.41818237 117.3731842 C5.71690858 126.20741744 -5.67930022 132.42256805 -17.43359375 133.23828125 C-32.46927007 133.65876731 -43.78527513 130.09533047 -55.21875 120.05078125 C-64.01215484 111.70032778 -68.91524587 102.14924628 -70 90 C-70.06445312 89.35933594 -70.12890625 88.71867187 -70.1953125 88.05859375 C-70.93306235 74.70532152 -65.23738645 64.11425448 -56.60469818 54.43564606 C-52.85079327 50.41579185 -48.94389969 46.54808755 -45.0390625 42.67578125 C-43.79924214 41.43648072 -42.55994271 40.19665885 -41.32113647 38.9563446 C-38.74563834 36.38093545 -36.16511943 33.81070602 -33.58056641 31.24438477 C-30.26306244 27.94976934 -26.95696722 24.64397254 -23.65424538 21.33454609 C-21.10681965 18.7837897 -18.55445459 16.23802495 -16.00043869 13.69386864 C-14.77823974 12.47552242 -13.55739067 11.25582053 -12.3379097 10.0347538 C-10.64372405 8.3401993 -8.94322315 6.65225932 -7.24072266 4.96606445 C-6.48489899 4.20652466 -6.48489899 4.20652466 -5.71380615 3.43164062 C-2.22876615 0 -2.22876615 0 0 0 Z " fill="#8F9750" transform="translate(194,211)"/>
<path d="M0 0 C2 2 2 2 2.6875 5.5 C2.48978666 11.96638926 -2.66388437 15.74272284 -7 20 C-8.06891271 21.0991305 -9.1352273 22.20079238 -10.19921875 23.3046875 C-11.2774257 24.41264701 -12.35683799 25.51943493 -13.4375 26.625 C-13.95731445 27.15834961 -14.47712891 27.69169922 -15.01269531 28.24121094 C-16.3034226 29.53363766 -17.64768711 30.77215897 -19 32 C-19.66 32 -20.32 32 -21 32 C-21.22816406 32.55429688 -21.45632813 33.10859375 -21.69140625 33.6796875 C-23.37194866 36.65951494 -25.50111699 38.7279712 -27.9375 41.125 C-28.81277344 41.99382812 -29.68804687 42.86265625 -30.58984375 43.7578125 C-33.41254754 46.38379625 -35.12628797 47.890786 -39 48.375 C-42 48 -42 48 -43.9375 46.375 C-45.39111425 43.12574461 -44.90180081 41.42178625 -44 38 C-42.07421875 35.3671875 -42.07421875 35.3671875 -39.6875 32.875 C-38.90761719 32.04742187 -38.12773437 31.21984375 -37.32421875 30.3671875 C-36.55722656 29.58601563 -35.79023438 28.80484375 -35 28 C-33.92685547 26.85917969 -33.92685547 26.85917969 -32.83203125 25.6953125 C-31 24 -31 24 -29 24 C-28.67 23.01 -28.34 22.02 -28 21 C-27.34 21 -26.68 21 -26 21 C-25.79375 20.46375 -25.5875 19.9275 -25.375 19.375 C-23.46749574 16.08021991 -20.95180616 13.40636372 -18 11 C-17.34 11 -16.68 11 -16 11 C-15.67 10.01 -15.34 9.02 -15 8 C-14.34 8 -13.68 8 -13 8 C-13 7.34 -13 6.68 -13 6 C-9.27060607 1.740988 -5.89232922 -1.0962473 0 0 Z " fill="#8D9750" transform="translate(310,211)"/>
<path d="M0 0 C1.60681641 -0.01429802 1.60681641 -0.01429802 3.24609375 -0.02888489 C4.98052734 -0.02751778 4.98052734 -0.02751778 6.75 -0.02612305 C7.93722656 -0.03040817 9.12445313 -0.0346933 10.34765625 -0.03910828 C12.85936851 -0.04485479 15.37109741 -0.04534949 17.8828125 -0.04101562 C21.73466224 -0.03785438 25.58574521 -0.06131647 29.4375 -0.08666992 C31.87499903 -0.08894266 34.31250013 -0.08964653 36.75 -0.08862305 C37.90628906 -0.09783279 39.06257813 -0.10704254 40.25390625 -0.11653137 C41.86072266 -0.10718819 41.86072266 -0.10718819 43.5 -0.09765625 C44.44359375 -0.09828568 45.3871875 -0.0989151 46.359375 -0.0995636 C48.75 0.2746582 48.75 0.2746582 50.55859375 1.61042786 C52.39091382 4.16992649 52.06838452 6.21816678 51.75 9.2746582 C49.75 12.2746582 49.75 12.2746582 46.75 13.2746582 C45.10492138 13.38652169 43.45583208 13.44355123 41.80712891 13.4675293 C40.80243561 13.48359222 39.79774231 13.49965515 38.76260376 13.51620483 C34.17800626 13.56069813 29.59355186 13.60170119 25.00878906 13.62475586 C22.58974601 13.64133355 20.1707523 13.66864701 17.75195312 13.70678711 C14.26406447 13.76149349 10.77732211 13.78341921 7.2890625 13.7980957 C6.20871735 13.82076508 5.12837219 13.84343445 4.01528931 13.86679077 C-3.46170798 13.84571286 -3.46170798 13.84571286 -7.47119141 10.94116211 C-9.25 8.2746582 -9.25 8.2746582 -9.25 5.0871582 C-7.51749487 0.21448754 -4.68469723 0.0228745 0 0 Z " fill="#8C944E" transform="translate(319.25,383.725341796875)"/>
<path d="M0 0 C7.35060015 -0.0759439 14.70109947 -0.12855502 22.05200195 -0.16479492 C24.55366802 -0.17989944 27.05530753 -0.20038429 29.55688477 -0.22631836 C33.14866684 -0.26262775 36.74009941 -0.27970975 40.33203125 -0.29296875 C41.45398392 -0.30845261 42.57593658 -0.32393646 43.73188782 -0.33988953 C44.77274033 -0.34011612 45.81359283 -0.34034271 46.88598633 -0.34057617 C47.80309891 -0.34723801 48.72021149 -0.35389984 49.66511536 -0.36076355 C52 0 52 0 53.8000946 1.33378601 C55.64313724 3.89307396 55.3189705 5.9378832 55 9 C54.34 9.99 53.68 10.98 53 12 C50.78536987 12.36076355 50.78536987 12.36076355 47.99951172 12.34057617 C46.43811966 12.34023628 46.43811966 12.34023628 44.84518433 12.33988953 C43.71807037 12.32440567 42.59095642 12.30892181 41.4296875 12.29296875 C39.70264084 12.28660149 39.70264084 12.28660149 37.94070435 12.28010559 C34.25190145 12.26327052 30.56363864 12.22560874 26.875 12.1875 C24.37891412 12.17245944 21.88281971 12.15876995 19.38671875 12.14648438 C13.25762725 12.1133512 7.1288522 12.06310389 1 12 C1 11.67 1 11.34 1 11 C15.52 10.67 30.04 10.34 45 10 C44.505 8.02 44.505 8.02 44 6 C44.66 5.67 45.32 5.34 46 5 C46.33 4.01 46.66 3.02 47 2 C23.735 1.505 23.735 1.505 0 1 C0 0.67 0 0.34 0 0 Z " fill="#949D59" transform="translate(316,384)"/>
<path d="M0 0 C0.33 0 0.66 0 1 0 C1.81926643 8.99606789 2.16103697 17.9058885 2.125 26.9375 C2.12161621 28.16662109 2.11823242 29.39574219 2.11474609 30.66210938 C1.99447097 51.7298355 -1.16592808 71.06729024 -8 91 C-8.33 91 -8.66 91 -9 91 C-9.3184913 84.94866533 -8.41124893 81.62624751 -6 76 C-5.83844086 73.8525216 -5.83844086 73.8525216 -5.9375 71.6875 C-5.958125 70.470625 -5.97875 69.25375 -6 68 C-5.01 67.01 -5.01 67.01 -4 66 C-3.55208188 63.44130433 -3.20650499 60.95276953 -2.9375 58.375 C-2.77994792 56.98697917 -2.62239583 55.59895833 -2.46484375 54.2109375 C-2.399021 53.59524902 -2.33319824 52.97956055 -2.26538086 52.34521484 C-2.03917711 50.34621466 -1.76946507 48.35221679 -1.49072266 46.35986328 C-0.892741 41.58767632 -0.77511337 36.83604372 -0.68359375 32.03125 C-0.66281265 31.11033569 -0.64203156 30.18942139 -0.62062073 29.24060059 C-0.55574882 26.32713575 -0.49653318 23.41358839 -0.4375 20.5 C-0.39425533 18.51301263 -0.35063924 16.52603331 -0.30664062 14.5390625 C-0.20013228 9.6927908 -0.09869316 4.8464369 0 0 Z " fill="#6D7541" transform="translate(459,237)"/>
<path d="M0 0 C2.4375 1.625 2.4375 1.625 4 4 C4.5625 6.9375 4.5625 6.9375 4 10 C1.9375 12.9375 1.9375 12.9375 -1 15 C-4.625 15.125 -4.625 15.125 -8 14 C-10.59393856 11.1628797 -11.02858292 9.71457298 -10.875 5.875 C-9.02054759 -0.21820078 -6.22519856 -0.76449807 0 0 Z " fill="#8F9854" transform="translate(328,192)"/>
<path d="M0 0 C1.90409134 -0.00574036 1.90409134 -0.00574036 3.84664917 -0.01159668 C6.5251162 -0.01431466 9.20211473 -0.00898719 11.88037109 0.00976562 C15.30826311 0.03260193 18.73490549 0.01939339 22.16275215 -0.00452423 C25.44187943 -0.02246757 28.72085642 -0.00990072 32 0 C33.22921173 -0.00809692 34.45842346 -0.01619385 35.72488403 -0.02453613 C36.86641937 -0.01192749 38.00795471 0.00068115 39.18408203 0.01367188 C40.18746613 0.01685425 41.19085022 0.02003662 42.22463989 0.02331543 C45.53759968 0.66011259 46.73881634 1.98511832 48.8671875 4.53125 C48.5371875 5.52125 48.2071875 6.51125 47.8671875 7.53125 C47.2071875 7.53125 46.5471875 7.53125 45.8671875 7.53125 C45.43921875 6.71893921 45.01125 5.90662842 44.5703125 5.06970215 C43.1309079 2.31756728 43.1309079 2.31756728 40.4765625 1.90979004 C39.06117188 1.9128717 39.06117188 1.9128717 37.6171875 1.91601562 C36.54597656 1.90671021 35.47476563 1.89740479 34.37109375 1.88781738 C33.21480469 1.90421265 32.05851562 1.92060791 30.8671875 1.9375 C29.08634766 1.93743958 29.08634766 1.93743958 27.26953125 1.93737793 C24.7577587 1.94274285 22.24598712 1.96036657 19.734375 1.98925781 C15.88229257 2.03108598 12.03195849 2.03033062 8.1796875 2.0234375 C5.74217531 2.03393021 3.30467216 2.04686874 0.8671875 2.0625 C-0.28910156 2.06270142 -1.44539063 2.06290283 -2.63671875 2.06311035 C-3.70792969 2.07902222 -4.77914063 2.09493408 -5.8828125 2.11132812 C-6.82640625 2.11974731 -7.77 2.1281665 -8.7421875 2.13684082 C-11.17946421 2.35536048 -11.17946421 2.35536048 -12.96875 3.86608887 C-14.43930888 5.61159596 -14.43930888 5.61159596 -14.0078125 8.59375 C-13.38630837 11.82380415 -13.38630837 11.82380415 -10.1328125 13.53125 C-7.68912276 13.85908829 -7.68912276 13.85908829 -4.92700195 13.85009766 C-3.86612869 13.86996735 -2.80525543 13.88983704 -1.7122345 13.91030884 C0.00350517 13.92763565 0.00350517 13.92763565 1.75390625 13.9453125 C2.92605179 13.96467865 4.09819733 13.9840448 5.30586243 14.0039978 C9.0553964 14.06385197 12.80496098 14.11020283 16.5546875 14.15625 C19.09441455 14.19442436 21.63412857 14.23347576 24.17382812 14.2734375 C30.40483247 14.36955835 36.63591501 14.45458885 42.8671875 14.53125 C42.8671875 14.86125 42.8671875 15.19125 42.8671875 15.53125 C15.6421875 16.02625 15.6421875 16.02625 -12.1328125 16.53125 C-12.1328125 15.87125 -12.1328125 15.21125 -12.1328125 14.53125 C-13.1228125 14.20125 -14.1128125 13.87125 -15.1328125 13.53125 C-20.05451272 9.39254754 -20.05451272 9.39254754 -20.3203125 6.46875 C-15.70925511 -1.05455416 -7.84353472 -0.05183677 0 0 Z " fill="#314512" transform="translate(325.1328125,382.46875)"/>
<path d="M0 0 C0.66 0 1.32 0 2 0 C-1.67832301 11.64802287 -5.67159918 24.0669266 -13 34 C-13.99 34.495 -13.99 34.495 -15 35 C-14.86145912 31.70798357 -14.71292976 28.41649291 -14.5625 25.125 C-14.50352539 23.71927734 -14.50352539 23.71927734 -14.44335938 22.28515625 C-14.40146484 21.38925781 -14.35957031 20.49335938 -14.31640625 19.5703125 C-14.27974854 18.74289551 -14.24309082 17.91547852 -14.20532227 17.06298828 C-14 15 -14 15 -13 13 C-8.25 14.875 -8.25 14.875 -6 16 C-5.67 14.35 -5.34 12.7 -5 11 C-5.33 11 -5.66 11 -6 11 C-6 9.35 -6 7.7 -6 6 C-4.35 5.67 -2.7 5.34 -1 5 C-0.67 3.35 -0.34 1.7 0 0 Z " fill="#858F4E" transform="translate(448,330)"/>
<path d="M0 0 C1.32 0.99 2.64 1.98 4 3 C2.41450777 7.84455959 2.41450777 7.84455959 1 10 C-2.1875 10.9375 -2.1875 10.9375 -5 11 C-5.33 13.31 -5.66 15.62 -6 18 C-6.66 18 -7.32 18 -8 18 C-8.33 20.31 -8.66 22.62 -9 25 C-9.66 25 -10.32 25 -11 25 C-11 25.99 -11 26.98 -11 28 C-11.66 28 -12.32 28 -13 28 C-12.95875 29.0725 -12.9175 30.145 -12.875 31.25 C-13.04537522 36.36125654 -13.04537522 36.36125654 -15 39 C-16.31608663 39.70009871 -17.64851102 40.3709533 -19 41 C-16.24466432 28.37793845 -9.45856884 9.45856884 0 0 Z " fill="#69703F" transform="translate(84,158)"/>
<path d="M0 0 C5.55135304 -0.37850134 5.55135304 -0.37850134 7.76782227 1.49142456 C10.90044192 3.60854677 13.20589704 3.35376949 16.96484375 3.32470703 C17.65816299 3.32353882 18.35148224 3.32237061 19.06581116 3.32116699 C21.35667901 3.31398465 23.64679938 3.28575446 25.9375 3.2578125 C27.53970678 3.24966764 29.14192173 3.24300755 30.74414062 3.23776245 C34.96799099 3.22064006 39.19152087 3.18641893 43.41522217 3.14770508 C50.14601968 3.08858074 56.87697053 3.05430564 63.60794067 3.02193832 C65.94305663 3.00814877 68.27799461 2.98651602 70.61303711 2.96365356 C78.79051457 2.89980515 86.85965175 3.12055516 95 4 C95 4.33 95 4.66 95 5 C83.64715953 5.06958221 72.29436999 5.12285311 60.94135952 5.15543652 C55.66940707 5.17107676 50.39760077 5.19228521 45.12573242 5.22631836 C40.03585948 5.25897012 34.94612692 5.27686536 29.8561573 5.28463173 C27.91653293 5.29016478 25.97691604 5.30096949 24.03735161 5.31719017 C21.31566784 5.3390417 18.59456044 5.34196369 15.87280273 5.34057617 C15.07510468 5.351362 14.27740662 5.36214783 13.45553589 5.3732605 C8.24651505 5.34462048 4.66295337 4.34095801 0 2 C0 1.34 0 0.68 0 0 Z " fill="#939F5D" transform="translate(194,393)"/>
<path d="M0 0 C1.6875 1.4375 1.6875 1.4375 3 4 C1.84262211 12.29454154 -3.42810659 21.14215989 -8 28 C-8.66 28 -9.32 28 -10 28 C-10.24234375 28.56589844 -10.4846875 29.13179688 -10.734375 29.71484375 C-14.1338231 35.85273615 -20.30706457 41.71460741 -27 44 C-27.66 43.67 -28.32 43.34 -29 43 C-23.25 39 -23.25 39 -21 39 C-21 38.34 -21 37.68 -21 37 C-16.69767442 32.23255814 -16.69767442 32.23255814 -13 31 C-12.27977603 29.35576776 -11.61931703 27.6848349 -11 26 C-10.07790185 24.57996885 -9.11810669 23.18381053 -8.125 21.8125 C-3.54485697 15.08226538 -0.70643886 8.12404686 0 0 Z " fill="#28341D" transform="translate(432,360)"/>
<path d="M0 0 C1.8125 1.125 1.8125 1.125 3 3 C3.4375 6 3.4375 6 3 9 C1.3125 10.9375 1.3125 10.9375 -1 12 C-3.625 11.875 -3.625 11.875 -6 11 C-8.15502531 7.76746204 -8.46856135 6.74849077 -8 3 C-5.85607122 -0.27231235 -3.76836426 -0.56525464 0 0 Z " fill="#8E9959" transform="translate(390,384)"/>
<path d="M0 0 C-1.31686259 3.00148314 -2.60895739 4.78331054 -5.1875 6.796875 C-5.80367188 7.28027344 -6.41984375 7.76367188 -7.0546875 8.26171875 C-8.01761719 8.99841797 -8.01761719 8.99841797 -9 9.75 C-9.96292969 10.50990234 -9.96292969 10.50990234 -10.9453125 11.28515625 C-15.73155323 15 -15.73155323 15 -18 15 C-18 14.01 -18 13.02 -18 12 C-17.01 11.34 -16.02 10.68 -15 10 C-14.58333333 7.5 -14.58333333 7.5 -15 5 C-15.66 4.34 -16.32 3.68 -17 3 C-14.54383175 2.30378686 -12.0855877 1.61775372 -9.625 0.9375 C-8.57699219 0.63875977 -8.57699219 0.63875977 -7.5078125 0.33398438 C-2.2265625 -1.11328125 -2.2265625 -1.11328125 0 0 Z " fill="#787F47" transform="translate(398,409)"/>
<path d="M0 0 C0.66 0.33 1.32 0.66 2 1 C1.54625 1.4125 1.0925 1.825 0.625 2.25 C-1.09686822 3.92669589 -1.09686822 3.92669589 -2 6.125 C-3 8 -3 8 -6 9 C-6.5775 9.721875 -7.155 10.44375 -7.75 11.1875 C-9.6154966 13.51937075 -11.21816181 15.0847254 -13.5 16.9375 C-16.72081716 19.59518921 -18.70015241 22.51057608 -21 26 C-22.32520503 26.68268138 -23.65812182 27.3507041 -25 28 C-25.45375 28.78375 -25.9075 29.5675 -26.375 30.375 C-28.73027479 34.17967466 -32.0550426 36.0275213 -36 38 C-34.6238464 34.90820864 -33.04841555 32.80361247 -30.65185547 30.42480469 C-29.97130096 29.74440125 -29.29074646 29.0639978 -28.58956909 28.36297607 C-27.85618317 27.63991272 -27.12279724 26.91684937 -26.3671875 26.171875 C-25.61535187 25.42286926 -24.86351624 24.67386353 -24.08889771 23.90216064 C-21.68892099 21.5133698 -19.28207991 19.13163103 -16.875 16.75 C-15.24563648 15.13066831 -13.61672466 13.51088198 -11.98828125 11.890625 C-7.99741194 7.92179495 -4.00088585 3.95873101 0 0 Z " fill="#374813" transform="translate(167,213)"/>
<path d="M0 0 C1.95963081 0.01005604 3.91926665 0.01917722 5.87890625 0.02734375 C10.62773087 0.04913511 15.37630823 0.08351835 20.125 0.125 C20.125 0.455 20.125 0.785 20.125 1.125 C7.17245583 2.5933046 -5.86214988 2.21970779 -18.875 2.125 C-18.875 2.455 -18.875 2.785 -18.875 3.125 C-20.009375 3.24875 -21.14375 3.3725 -22.3125 3.5 C-24.0759375 3.809375 -24.0759375 3.809375 -25.875 4.125 C-26.205 4.785 -26.535 5.445 -26.875 6.125 C-28.525 6.125 -30.175 6.125 -31.875 6.125 C-31.875 5.465 -31.875 4.805 -31.875 4.125 C-34.515 4.125 -37.155 4.125 -39.875 4.125 C-28.72564572 -2.22843102 -12.38457006 -0.11149689 0 0 Z " fill="#6B713D" transform="translate(258.875,61.875)"/>
<path d="M0 0 C0 3 0 3 -1.21484375 4.5756073 C-1.78332031 5.13742203 -2.35179687 5.69923676 -2.9375 6.27807617 C-3.89849609 7.23873238 -3.89849609 7.23873238 -4.87890625 8.21879578 C-5.57886719 8.90327286 -6.27882812 9.58774994 -7 10.29296875 C-7.71027344 10.99899734 -8.42054688 11.70502594 -9.15234375 12.43244934 C-11.42796996 14.69125019 -13.71379365 16.93941307 -16 19.1875 C-17.54234842 20.71480664 -19.08402406 22.242793 -20.625 23.77148438 C-24.40888829 27.52225221 -28.20120662 31.26433217 -32 35 C-32.66 34.67 -33.32 34.34 -34 34 C-33.01 31.03 -33.01 31.03 -32 28 C-30.35 27.67 -28.7 27.34 -27 27 C-26.67 26.01 -26.34 25.02 -26 24 C-24.68057488 23.30621359 -23.3445665 22.64371046 -22 22 C-18.92952469 19.34812439 -16.11213054 16.43649676 -13.25 13.5625 C-12.06083984 12.39750977 -12.06083984 12.39750977 -10.84765625 11.20898438 C-10.09871094 10.46068359 -9.34976563 9.71238281 -8.578125 8.94140625 C-7.89137695 8.25763916 -7.20462891 7.57387207 -6.49707031 6.86938477 C-4.68745361 5.00888427 -4.68745361 5.00888427 -5 2 C-3.35 1.34 -1.7 0.68 0 0 Z " fill="#909B5A" transform="translate(168,210)"/>
<path d="M0 0 C0.66 0.66 1.32 1.32 2 2 C0.68 3.32 -0.64 4.64 -2 6 C-1.67 6.99 -1.34 7.98 -1 9 C-1.99 9.495 -1.99 9.495 -3 10 C-3 9.34 -3 8.68 -3 8 C-6.59763903 10.07863588 -8.67783605 11.35567211 -10.5625 15.125 C-12.33421516 18.66843031 -13.38857889 18.71020675 -17 20 C-20.55503433 23.19041543 -23.59996495 26.79837518 -26.66796875 30.44921875 C-27.72555357 31.68048318 -28.85228537 32.85228537 -30 34 C-30 30 -30 30 -28.86108398 28.38006592 C-28.32813721 27.85600159 -27.79519043 27.33193726 -27.24609375 26.79199219 C-26.64547119 26.19167175 -26.04484863 25.59135132 -25.42602539 24.97283936 C-24.76981201 24.33727112 -24.11359863 23.70170288 -23.4375 23.046875 C-22.77161865 22.38665344 -22.1057373 21.72643188 -21.41967773 21.04620361 C-19.28897852 18.93790982 -17.14479947 16.84393845 -15 14.75 C-13.55377846 13.32383791 -12.10845416 11.89676534 -10.6640625 10.46875 C-7.11970314 6.96851345 -3.56319074 3.48106046 0 0 Z " fill="#909B59" transform="translate(321,237)"/>
<path d="M0 0 C1.32 0 2.64 0 4 0 C4 0.66 4 1.32 4 2 C4.66 2.33 5.32 2.66 6 3 C5.42415568 5.38564077 4.77772405 7.66682784 4 10 C-2.625 9.25 -2.625 9.25 -6 7 C-5.360625 6.896875 -4.72125 6.79375 -4.0625 6.6875 C-3.381875 6.460625 -2.70125 6.23375 -2 6 C-1.67 5.01 -1.34 4.02 -1 3 C-0.34 3 0.32 3 1 3 C0.67 2.01 0.34 1.02 0 0 Z " fill="#7E8545" transform="translate(196,447)"/>
<path d="M0 0 C5.84598237 5.84598237 6.81871443 17.10403857 8 25 C7.34 25 6.68 25 6 25 C6 23.35 6 21.7 6 20 C4.68 19.67 3.36 19.34 2 19 C1.67 17.35 1.34 15.7 1 14 C1.99 13.67 2.98 13.34 4 13 C2.68 12.67 1.36 12.34 0 12 C0.66 12 1.32 12 2 12 C1.67 10.7625 1.34 9.525 1 8.25 C0.20108841 5.25408155 0 3.19892281 0 0 Z " fill="#6E7640" transform="translate(448,194)"/>
<path d="M0 0 C0.66 0.33 1.32 0.66 2 1 C-5.26 8.26 -12.52 15.52 -20 23 C-20 19.05594798 -18.50598828 17.9482215 -16 15 C-15.34 14.01 -14.68 13.02 -14 12 C-13.01 12 -12.02 12 -11 12 C-10.938125 11.21625 -10.87625 10.4325 -10.8125 9.625 C-10.544375 8.75875 -10.27625 7.8925 -10 7 C-8.35965807 6.27095914 -6.68698082 5.61344757 -5 5 C-2.22847788 2.47943955 -2.22847788 2.47943955 0 0 Z " fill="#354812" transform="translate(265,291)"/>
<path d="M0 0 C2.72265625 -0.328125 2.72265625 -0.328125 6.0625 -0.25 C7.22265625 -0.22421875 8.3828125 -0.1984375 9.578125 -0.171875 C13.75944654 0.03814572 17.85191502 0.4375478 22 1 C22 1.66 22 2.32 22 3 C14.08 3 6.16 3 -2 3 C-1.34 2.01 -0.68 1.02 0 0 Z " fill="#3B4C13" transform="translate(267,306)"/>
<path d="M0 0 C0.33 0.66 0.66 1.32 1 2 C0.34 2 -0.32 2 -1 2 C-0.67 3.65 -0.34 5.3 0 7 C-2.31 7.33 -4.62 7.66 -7 8 C-7.66 9.65 -8.32 11.3 -9 13 C-10.98 13 -12.96 13 -15 13 C-13.33333333 11.33333333 -11.66666667 9.66666667 -10 8 C-9.1646875 7.1028125 -9.1646875 7.1028125 -8.3125 6.1875 C-7 5 -7 5 -5 5 C-5 4.34 -5 3.68 -5 3 C-2.5 1.375 -2.5 1.375 0 0 Z " fill="#727B44" transform="translate(136,101)"/>
<path d="M0 0 C-0.66 1.32 -1.32 2.64 -2 4 C-2.99 3.67 -3.98 3.34 -5 3 C-5.33 4.32 -5.66 5.64 -6 7 C-6.86625 6.62875 -7.7325 6.2575 -8.625 5.875 C-12.61472241 4.84062752 -14.21748815 5.60211519 -18 7 C-20.1796875 6.56640625 -20.1796875 6.56640625 -22 6 C-19.77236012 5.18309823 -17.5430514 4.37138128 -15.3125 3.5625 C-14.68666016 3.33240234 -14.06082031 3.10230469 -13.41601562 2.86523438 C-8.88848917 1.22963581 -4.82349233 0 0 0 Z " fill="#747C42" transform="translate(205,69)"/>
<path d="M0 0 C0.66 0.33 1.32 0.66 2 1 C-4 7 -10 13 -16 19 C-16 15 -16 15 -15 13 C-12.9375 11.875 -12.9375 11.875 -11 11 C-11 10.34 -11 9.68 -11 9 C-10.01 9 -9.02 9 -8 9 C-7.95875 8.4225 -7.9175 7.845 -7.875 7.25 C-6.55942613 3.86709577 -4.02876518 2.82987896 -1 1 C-0.67 0.67 -0.34 0.34 0 0 Z " fill="#334611" transform="translate(146,255)"/>
<path d="M0 0 C0.66 0.33 1.32 0.66 2 1 C-4.6 7.6 -11.2 14.2 -18 21 C-18 16.73589314 -15.66679857 15.20015828 -13 12 C-13 11.01 -13 10.02 -13 9 C-11.68 9 -10.36 9 -9 9 C-6.26533528 6.73413495 -5.1328469 5.3985407 -4 2 C-2.0625 0.75 -2.0625 0.75 0 0 Z " fill="#919C5D" transform="translate(232,146)"/>
<path d="M0 0 C1.32 0.99 2.64 1.98 4 3 C2.41450777 7.84455959 2.41450777 7.84455959 1 10 C-2.1875 10.9375 -2.1875 10.9375 -5 11 C-4.46884894 6.48521602 -2.63379708 3.65333143 0 0 Z " fill="#7A7F46" transform="translate(84,158)"/>
<path d="M0 0 C8.15484303 0.44651878 16.04264468 1.11150323 24 3 C24 3.33 24 3.66 24 4 C22.576875 4.2165625 22.576875 4.2165625 21.125 4.4375 C18.1065506 4.82935399 18.1065506 4.82935399 16 6 C16 6.66 16 7.32 16 8 C14.68 8.33 13.36 8.66 12 9 C12.33 7.68 12.66 6.36 13 5 C13.66 5 14.32 5 15 5 C15 4.34 15 3.68 15 3 C14.33613281 2.93941406 13.67226563 2.87882812 12.98828125 2.81640625 C4.21792619 1.98418278 4.21792619 1.98418278 0 1 C0 0.67 0 0.34 0 0 Z " fill="#757945" transform="translate(280,63)"/>
<path d="M0 0 C0.66 0 1.32 0 2 0 C0.25709852 6.24893946 -1.90809103 10.9389547 -6 16 C-6.33 16 -6.66 16 -7 16 C-7.1875 13.625 -7.1875 13.625 -7 11 C-6.01 10.34 -5.02 9.68 -4 9 C-3.7497843 5.91634129 -3.7497843 5.91634129 -4 3 C-2.68 2.67 -1.36 2.34 0 2 C0 1.34 0 0.68 0 0 Z " fill="#62683B" transform="translate(440,349)"/>
<path d="M0 0 C0.66 0.33 1.32 0.66 2 1 C-2.62 5.62 -7.24 10.24 -12 15 C-12 14.01 -12 13.02 -12 12 C-11.484375 11.54625 -10.96875 11.0925 -10.4375 10.625 C-9.963125 10.08875 -9.48875 9.5525 -9 9 C-9.23043864 6.34533951 -9.23043864 6.34533951 -10 4 C-7.96165924 3.49041481 -5.93331236 2.98627019 -3.875 2.5625 C-1.77917672 2.09524327 -1.77917672 2.09524327 0 0 Z " fill="#354814" transform="translate(171,230)"/>
<path d="M0 0 C0.99 0.33 1.98 0.66 3 1 C1.86280581 4.41158256 0.95657056 5.11854601 -2 7 C-2.66 7 -3.32 7 -4 7 C-4.18175781 7.61488281 -4.36351563 8.22976563 -4.55078125 8.86328125 C-4.80214844 9.67152344 -5.05351563 10.47976563 -5.3125 11.3125 C-5.55613281 12.11300781 -5.79976563 12.91351563 -6.05078125 13.73828125 C-7.04182023 16.09964573 -8.08074943 17.33879993 -10 19 C-9.39817075 14.9633404 -8.09738902 11.93707569 -6.125 8.375 C-5.61195312 7.43398438 -5.09890625 6.49296875 -4.5703125 5.5234375 C-3.20147191 3.32375834 -1.92063427 1.7136198 0 0 Z " fill="#374816" transform="translate(122,258)"/>
<path d="M0 0 C0.66 0 1.32 0 2 0 C0.25192871 5.46737191 -1.65794081 10.75824848 -4 16 C-5.58502671 12.82994658 -5.60385067 9.50875122 -6 6 C-4.35 5.67 -2.7 5.34 -1 5 C-0.67 3.35 -0.34 1.7 0 0 Z " fill="#6C7339" transform="translate(448,330)"/>
<path d="M0 0 C0.66 0 1.32 0 2 0 C1.72285156 1.02738281 1.44570312 2.05476563 1.16015625 3.11328125 C-0.93838622 11.07619104 -2.64961379 18.73088536 -3 27 C-3.33 27 -3.66 27 -4 27 C-4.0270203 24.24993392 -4.04684883 21.50013454 -4.0625 18.75 C-4.07087891 17.97269531 -4.07925781 17.19539063 -4.08789062 16.39453125 C-4.09111328 15.64042969 -4.09433594 14.88632812 -4.09765625 14.109375 C-4.10289307 13.41811523 -4.10812988 12.72685547 -4.11352539 12.01464844 C-3.99437971 9.90026102 -3.57618237 8.03358485 -3 6 C-2.34 6 -1.68 6 -1 6 C-0.67 4.02 -0.34 2.04 0 0 Z " fill="#354711" transform="translate(127,276)"/>
<path d="M0 0 C0.66 0.33 1.32 0.66 2 1 C-0.46153846 5.8 -0.46153846 5.8 -3.1875 6.8125 C-3.785625 6.874375 -4.38375 6.93625 -5 7 C-4.67 8.32 -4.34 9.64 -4 11 C-4.94875 11.309375 -5.8975 11.61875 -6.875 11.9375 C-9.86080408 12.87394742 -9.86080408 12.87394742 -12 14 C-10.41332422 10.09714233 -7.86649519 7.66479018 -4.875 4.75 C-3.96492187 3.85796875 -3.05484375 2.9659375 -2.1171875 2.046875 C-1.41851562 1.37140625 -0.71984375 0.6959375 0 0 Z " fill="#384916" transform="translate(195,185)"/>
<path d="M0 0 C-1.32120828 2.93230193 -2.74638197 4.98664899 -5.0390625 7.234375 C-5.90917969 8.09482422 -5.90917969 8.09482422 -6.796875 8.97265625 C-7.40015625 9.55917969 -8.0034375 10.14570313 -8.625 10.75 C-9.23601562 11.35199219 -9.84703125 11.95398438 -10.4765625 12.57421875 C-11.97988624 14.05405305 -13.48934856 15.52764676 -15 17 C-15.66 16.67 -16.32 16.34 -17 16 C-16.12214844 15.18015625 -15.24429688 14.3603125 -14.33984375 13.515625 C-13.20508388 12.42775603 -12.07100421 11.33917723 -10.9375 10.25 C-10.35677734 9.71117187 -9.77605469 9.17234375 -9.17773438 8.6171875 C-7.30292995 6.85270003 -7.30292995 6.85270003 -5 4 C-5.26561143 1.84115287 -5.26561143 1.84115287 -6 0 C-3.50907189 -1.24546405 -2.58919267 -0.7767578 0 0 Z " fill="#929D5C" transform="translate(208,171)"/>
<path d="M0 0 C2.86867231 1.38264837 5.56024032 2.92148553 8.25 4.625 C8.95640625 5.07101563 9.6628125 5.51703125 10.390625 5.9765625 C10.92171875 6.31429687 11.4528125 6.65203125 12 7 C11.67 7.66 11.34 8.32 11 9 C10.01 8.67 9.02 8.34 8 8 C8 7.34 8 6.68 8 6 C4.9254644 6.7763932 4.9254644 6.7763932 3 9 C3 8.01 3 7.02 3 6 C2.01 5.67 1.02 5.34 0 5 C-0.33 4.34 -0.66 3.68 -1 3 C-0.67 2.01 -0.34 1.02 0 0 Z " fill="#7A7F42" transform="translate(370,95)"/>
<path d="M0 0 C5.66666667 5.66666667 11.33333333 11.33333333 17 17 C14.0625 16.1875 14.0625 16.1875 11 15 C10.67 14.01 10.34 13.02 10 12 C8.6689113 11.32886284 7.33527694 10.6627652 6 10 C4.296875 8.125 4.296875 8.125 2.75 6 C2.22921875 5.29875 1.7084375 4.5975 1.171875 3.875 C0 2 0 2 0 0 Z " fill="#394A15" transform="translate(130,321)"/>
<path d="M0 0 C4.01928565 1.17637629 7.277896 2.76590369 10.85546875 4.9140625 C15.3336654 7.18171035 20.21508963 8.52288481 25 10 C25 10.33 25 10.66 25 11 C18.79300903 10.89298291 14.09551946 9.39150973 8.5625 6.625 C7.94745605 6.32070068 7.33241211 6.01640137 6.69873047 5.70288086 C3.53721525 4.05887537 2.01683287 3.02524931 0 0 Z " fill="#384811" transform="translate(133,347)"/>
<path d="M0 0 C0.66 0 1.32 0 2 0 C2 1.65 2 3.3 2 5 C1.34 5 0.68 5 0 5 C0 5.66 0 6.32 0 7 C-1.32 7 -2.64 7 -4 7 C-4.061875 7.61875 -4.12375 8.2375 -4.1875 8.875 C-5 11 -5 11 -7.5625 12.25 C-8.366875 12.4975 -9.17125 12.745 -10 13 C-8.0095043 10.32610077 -6.00713735 7.66142477 -4 5 C-3.2575 4.01 -2.515 3.02 -1.75 2 C-1.1725 1.34 -0.595 0.68 0 0 Z " fill="#777F46" transform="translate(110,123)"/>
<path d="M0 0 C-2.97 2.31 -5.94 4.62 -9 7 C-9.33 6.34 -9.66 5.68 -10 5 C-9.01 4.01 -8.02 3.02 -7 2 C-9.31 2.33 -11.62 2.66 -14 3 C-14 2.01 -14 1.02 -14 0 C-12.04235617 -0.19456705 -10.08384679 -0.38044247 -8.125 -0.5625 C-6.48917969 -0.71912109 -6.48917969 -0.71912109 -4.8203125 -0.87890625 C-2 -1 -2 -1 0 0 Z " fill="#435131" transform="translate(407,404)"/>
<path d="M0 0 C2.91691525 -0.05401695 5.83282724 -0.09368066 8.75 -0.125 C9.575 -0.14175781 10.4 -0.15851563 11.25 -0.17578125 C12.04921875 -0.18222656 12.8484375 -0.18867188 13.671875 -0.1953125 C14.4050293 -0.20578613 15.13818359 -0.21625977 15.89355469 -0.22705078 C18.29896076 0.03222456 19.91251494 0.80774075 22 2 C21.67 2.33 21.34 2.66 21 3 C18.21275679 2.96149398 15.46746505 2.85425222 12.6875 2.6875 C11.52831055 2.63432617 11.52831055 2.63432617 10.34570312 2.58007812 C3.31104332 2.17481397 3.31104332 2.17481397 0 0 Z " fill="#676C3A" transform="translate(222,462)"/>
<path d="M0 0 C4.17882671 2.56428003 7.12505529 5.01930733 10 9 C3.61657459 8.39779006 3.61657459 8.39779006 1.0625 6.75 C-0.35440053 4.41628148 -0.21718696 2.67863922 0 0 Z " fill="#777B47" transform="translate(391,111)"/>
<path d="M0 0 C0.99 0.33 1.98 0.66 3 1 C1.58397787 4.14906415 -0.13735082 6.49523672 -2.4375 9.0625 C-3.03433594 9.73410156 -3.63117188 10.40570313 -4.24609375 11.09765625 C-5.79296942 12.7754479 -7.37171566 14.40159243 -9 16 C-7.24385848 11.02426569 -4.74380523 6.74380523 -1 3 C-0.67 2.01 -0.34 1.02 0 0 Z " fill="#8F9A5C" transform="translate(124,251)"/>
<path d="M0 0 C3.24623365 2.92715941 5.00516159 5.62910463 6.75 9.625 C7.17796875 10.58664063 7.6059375 11.54828125 8.046875 12.5390625 C9 15 9 15 9 17 C7.68 16.67 6.36 16.34 5 16 C4.80664062 15.26394531 4.61328125 14.52789062 4.4140625 13.76953125 C4.15367187 12.79371094 3.89328125 11.81789062 3.625 10.8125 C3.36976563 9.84957031 3.11453125 8.88664063 2.8515625 7.89453125 C2.05233704 5.17789793 1.0968638 2.60862825 0 0 Z " fill="#606637" transform="translate(435,165)"/>
<path d="M0 0 C1.1875 1.9375 1.1875 1.9375 0.875 5.125 C0.648125 6.053125 0.42125 6.98125 0.1875 7.9375 C-0.4725 7.6075 -1.1325 7.2775 -1.8125 6.9375 C-1.8125 6.2775 -1.8125 5.6175 -1.8125 4.9375 C-2.4725 4.9375 -3.1325 4.9375 -3.8125 4.9375 C-3.8125 4.2775 -3.8125 3.6175 -3.8125 2.9375 C-4.8025 2.6075 -5.7925 2.2775 -6.8125 1.9375 C-5.8125 -0.0625 -5.8125 -0.0625 -3.9375 -0.875 C-1.8125 -1.0625 -1.8125 -1.0625 0 0 Z " fill="#8B954E" transform="translate(310.8125,212.0625)"/>
<path d="M0 0 C0.33 0 0.66 0 1 0 C0.8858134 1.93816735 0.75826577 3.87555099 0.625 5.8125 C0.55539063 6.89144531 0.48578125 7.97039062 0.4140625 9.08203125 C0 12 0 12 -2 15 C-2.66613335 17.27538323 -2.66613335 17.27538323 -3.125 19.6875 C-3.29257812 20.49574219 -3.46015625 21.30398437 -3.6328125 22.13671875 C-3.75398438 22.75160156 -3.87515625 23.36648437 -4 24 C-5.69930449 19.87004478 -4.24665798 16.1003656 -3.125 12 C-2.84462891 10.93265625 -2.84462891 10.93265625 -2.55859375 9.84375 C-2.04571203 7.89407197 -1.52323604 5.94692478 -1 4 C-0.66420026 2.66728569 -0.33020722 1.33411097 0 0 Z " fill="#5F6537" transform="translate(64,200)"/>
<path d="M0 0 C1.65 0 3.3 0 5 0 C2.20145256 3.29240875 -1.20673275 5.03562946 -5 7 C-5.99 7 -6.98 7 -8 7 C-8 5.68 -8 4.36 -8 3 C-5.3260876 2.10869587 -2.76276177 1.52268466 0 1 C0 0.67 0 0.34 0 0 Z " fill="#747741" transform="translate(361,434)"/>
<path d="M0 0 C0.433125 0.495 0.86625 0.99 1.3125 1.5 C2.99740483 3.33218192 2.99740483 3.33218192 6 3 C6 4.32 6 5.64 6 7 C4.35 7.66 2.7 8.32 1 9 C-0.61949011 6.42786866 -1.04408751 5.32330841 -0.625 2.25 C-0.41875 1.5075 -0.2125 0.765 0 0 Z " fill="#8E954A" transform="translate(385,384)"/>
<path d="M0 0 C2.68312309 1.34156155 3.28789212 3.18518146 4.40234375 5.87890625 C5.43871844 9.55702035 5.23171432 13.21533271 5 17 C2.215707 14.215707 2.05089931 11.113137 1.375 7.375 C1.2409375 6.66859375 1.106875 5.9621875 0.96875 5.234375 C0.63889975 3.49088082 0.31853944 1.74559611 0 0 Z " fill="#656A3B" transform="translate(59,304)"/>
<path d="M0 0 C0.33 0.99 0.66 1.98 1 3 C0.34 3.66 -0.32 4.32 -1 5 C-1.99 5 -2.98 5 -4 5 C-4.33 6.65 -4.66 8.3 -5 10 C-6.98 10.33 -8.96 10.66 -11 11 C-11 10.34 -11 9.68 -11 9 C-9.35546875 7.59765625 -9.35546875 7.59765625 -7.1875 6.0625 C-4.56469417 4.19452718 -2.21550645 2.34130807 0 0 Z " fill="#909B5B" transform="translate(218,341)"/>
<path d="M0 0 C0.66 0 1.32 0 2 0 C0.9318153 5.11365014 -0.23107476 10.07227969 -2 15 C-2.33 15 -2.66 15 -3 15 C-3.3152595 9.01006953 -2.68219822 5.36439644 0 0 Z " fill="#6A6E3B" transform="translate(453,313)"/>
<path d="M0 0 C5.73490428 -0.58819531 10.06191892 1.29393157 15 4 C15.66 4.66 16.32 5.32 17 6 C15.56163249 5.88541307 14.12429034 5.75790884 12.6875 5.625 C11.88699219 5.55539062 11.08648437 5.48578125 10.26171875 5.4140625 C8 5 8 5 5 3 C5 2.34 5 1.68 5 1 C3.35 1 1.7 1 0 1 C0 0.67 0 0.34 0 0 Z " fill="#354713" transform="translate(387,294)"/>
<path d="M0 0 C-0.33 0.99 -0.66 1.98 -1 3 C-5.455 3.495 -5.455 3.495 -10 4 C-10.33 3.34 -10.66 2.68 -11 2 C-9.54494642 1.47007308 -8.08581873 0.9513211 -6.625 0.4375 C-5.81289063 0.14746094 -5.00078125 -0.14257812 -4.1640625 -0.44140625 C-2 -1 -2 -1 0 0 Z " fill="#8D9756" transform="translate(398,409)"/>
<path d="M0 0 C0.66 0.33 1.32 0.66 2 1 C2 1.66 2 2.32 2 3 C2.66 3.33 3.32 3.66 4 4 C4 4.99 4 5.98 4 7 C1.03 6.67 -1.94 6.34 -5 6 C-3.35 4.02 -1.7 2.04 0 0 Z " fill="#929C56" transform="translate(261,297)"/>
<path d="M0 0 C0.33 0 0.66 0 1 0 C2.51708428 11.52164009 2.51708428 11.52164009 0 17 C-0.33 17 -0.66 17 -1 17 C-1.10477512 11.21408489 -0.99250545 5.70690634 0 0 Z " fill="#707945" transform="translate(58,224)"/>
<path d="M0 0 C3.3 0.33 6.6 0.66 10 1 C9.67 2.65 9.34 4.3 9 6 C5.06326356 4.68775452 2.77280706 3.08089673 0 0 Z " fill="#6C7340" transform="translate(146,431)"/>
<path d="M0 0 C2 2 4 4 6 6 C5.01 6 4.02 6 3 6 C3.22816406 6.54269531 3.45632812 7.08539063 3.69140625 7.64453125 C3.97886719 8.35996094 4.26632813 9.07539063 4.5625 9.8125 C4.85253906 10.52019531 5.14257812 11.22789062 5.44140625 11.95703125 C6 14 6 14 5 17 C4.15838146 14.91999989 3.32699237 12.83585854 2.5 10.75 C2.0359375 9.58984375 1.571875 8.4296875 1.09375 7.234375 C0 4 0 4 0 0 Z " fill="#686D39" transform="translate(64,321)"/>
<path d="M0 0 C0.66 0.33 1.32 0.66 2 1 C-1.18683431 5.33409466 -4.86378916 8.6189962 -9 12 C-9 9 -9 9 -7.03125 6.73828125 C-5.77828125 5.53751953 -5.77828125 5.53751953 -4.5 4.3125 C-3.6646875 3.50425781 -2.829375 2.69601563 -1.96875 1.86328125 C-1.3190625 1.24839844 -0.669375 0.63351563 0 0 Z " fill="#384814" transform="translate(215,165)"/>
<path d="M0 0 C0 2 0 2 -1.609375 3.65625 C-2.31578125 4.2646875 -3.0221875 4.873125 -3.75 5.5 C-4.44609375 6.1084375 -5.1421875 6.716875 -5.859375 7.34375 C-7.84460792 8.87976963 -9.71872045 9.9723966 -12 11 C-8.25 5.25 -8.25 5.25 -6 3 C-5.67 2.34 -5.34 1.68 -5 1 C-2 0 -2 0 0 0 Z " fill="#919C5B" transform="translate(249,131)"/>
<path d="M0 0 C1.32 0 2.64 0 4 0 C4 0.66 4 1.32 4 2 C4.66 2 5.32 2 6 2 C6 2.66 6 3.32 6 4 C7.32 3.67 8.64 3.34 10 3 C10 4.65 10 6.3 10 8 C7.05043472 6.63055898 4.47531189 5.12169591 2 3 C2 2.34 2 1.68 2 1 C1.34 0.67 0.68 0.34 0 0 Z " fill="#6D7040" transform="translate(121,412)"/>
<path d="M0 0 C-1.40844718 3.21524305 -3.10344786 5.32183868 -5.625 7.75 C-6.57246094 8.67039062 -6.57246094 8.67039062 -7.5390625 9.609375 C-8.02117187 10.06828125 -8.50328125 10.5271875 -9 11 C-9.66 10.67 -10.32 10.34 -11 10 C-10.67 9.34 -10.34 8.68 -10 8 C-9.34 8 -8.68 8 -8 8 C-7.7525 7.4225 -7.505 6.845 -7.25 6.25 C-5.58207452 3.24773413 -3.67725381 0 0 0 Z " fill="#354712" transform="translate(296,261)"/>
<path d="M0 0 C3.08089673 2.77280706 4.68775452 5.06326356 6 9 C3 8 3 8 1 6 C0.01 5.67 -0.98 5.34 -2 5 C-2 4.34 -2 3.68 -2 3 C-1.34 3 -0.68 3 0 3 C0 2.01 0 1.02 0 0 Z " fill="#6C7142" transform="translate(426,150)"/>
<path d="M0 0 C5.02265357 1.18180084 8.0949151 2.44992282 12 6 C9 7 9 7 6.73828125 6.00390625 C5.93777344 5.52824219 5.13726562 5.05257812 4.3125 4.5625 C3.50425781 4.08941406 2.69601562 3.61632812 1.86328125 3.12890625 C1.24839844 2.75636719 0.63351562 2.38382812 0 2 C0 1.34 0 0.68 0 0 Z " fill="#6C7043" transform="translate(341,79)"/>
<path d="M0 0 C-3.00950123 1.61725534 -5.97103608 2.67582623 -9.25 3.625 C-10.58804687 4.01558594 -10.58804687 4.01558594 -11.953125 4.4140625 C-12.62859375 4.60742188 -13.3040625 4.80078125 -14 5 C-13.67 4.01 -13.34 3.02 -13 2 C-8.60470084 0.01165038 -4.77962147 -0.19118486 0 0 Z " fill="#6A7037" transform="translate(331,452)"/>
<path d="M0 0 C3.33571429 1.11190476 3.58417079 1.46320673 5.1875 4.375 C5.70376953 5.28378906 5.70376953 5.28378906 6.23046875 6.2109375 C7 8 7 8 7 11 C6.34 11 5.68 11 5 11 C5 9.35 5 7.7 5 6 C3.68 5.67 2.36 5.34 1 5 C0.67 3.35 0.34 1.7 0 0 Z " fill="#7B8245" transform="translate(449,208)"/>
<path d="M0 0 C2.31 1.98 4.62 3.96 7 6 C6.34 6.66 5.68 7.32 5 8 C4.67 7.34 4.34 6.68 4 6 C0.97065509 5.34227572 0.97065509 5.34227572 -2 5 C-1.34 3.35 -0.68 1.7 0 0 Z " fill="#767A45" transform="translate(403,122)"/>
<path d="M0 0 C0.66 0.33 1.32 0.66 2 1 C1.01 2.98 0.02 4.96 -1 7 C-4 6 -4 6 -5 5 C-5.66 4.67 -6.32 4.34 -7 4 C-1.7265625 0.77734375 -1.7265625 0.77734375 0 0 Z " fill="#727843" transform="translate(161,85)"/>
<path d="M0 0 C0 1.65 0 3.3 0 5 C-2.02045442 4.39816251 -4.02111039 3.72693904 -6 3 C-6.33 2.34 -6.66 1.68 -7 1 C-4.53721199 -0.231394 -2.7204945 -0.07159196 0 0 Z " fill="#767D3F" transform="translate(162,436)"/>
<path d="M0 0 C3.465 1.485 3.465 1.485 7 3 C6.67 4.98 6.34 6.96 6 9 C2.91910327 6.22719294 1.31224548 3.93673644 0 0 Z " fill="#727A3E" transform="translate(89,374)"/>
<path d="M0 0 C2 0 2 0 3.5625 1.125 C5.49026016 3.63946978 5.65505107 5.89545967 6 9 C5.01 9.495 5.01 9.495 4 10 C3.32845067 8.71086513 2.66291141 7.41859796 2 6.125 C1.62875 5.40570313 1.2575 4.68640625 0.875 3.9453125 C0 2 0 2 0 0 Z " fill="#707742" transform="translate(75,350)"/>
<path d="M0 0 C1.32 0 2.64 0 4 0 C2.44499019 3.81684226 -0.03595495 6.19195732 -3 9 C-3.66 8.67 -4.32 8.34 -5 8 C-4.0409375 7.13375 -4.0409375 7.13375 -3.0625 6.25 C-1.01776132 4.01937599 -0.41794801 2.92563609 0 0 Z " fill="#364913" transform="translate(302,251)"/>
<path d="M0 0 C1.10084497 4.40337988 0.7915332 5.26798414 -0.9375 9.25 C-1.31777344 10.14203125 -1.69804687 11.0340625 -2.08984375 11.953125 C-2.39019531 12.62859375 -2.69054687 13.3040625 -3 14 C-3.5534764 11.92446352 -4 10.15634036 -4 8 C-3.34 8 -2.68 8 -2 8 C-1.34 5.36 -0.68 2.72 0 0 Z " fill="#32440D" transform="translate(350,192)"/>
<path d="M0 0 C0.33 1.32 0.66 2.64 1 4 C-2.375 4.125 -2.375 4.125 -6 4 C-6.66 3.34 -7.32 2.68 -8 2 C-5.09399739 0.74335022 -3.20395416 0 0 0 Z " fill="#959D57" transform="translate(194,410)"/>
<path d="M0 0 C4.75 0.75 4.75 0.75 7 3 C7.125 5.625 7.125 5.625 7 8 C5 5 5 5 5 3 C3.68 3.33 2.36 3.66 1 4 C0.67 2.68 0.34 1.36 0 0 Z " fill="#97A261" transform="translate(386,384)"/>
<path d="M0 0 C1.32 0.33 2.64 0.66 4 1 C3.34 2.98 2.68 4.96 2 7 C0.68 6.01 -0.64 5.02 -2 4 C-1.34 2.68 -0.68 1.36 0 0 Z " fill="#788345" transform="translate(101,386)"/>
<path d="M0 0 C2.625 0.9375 2.625 0.9375 5 2 C4.67 2.66 4.34 3.32 4 4 C1.9375 4.625 1.9375 4.625 0 5 C0 4.34 0 3.68 0 3 C-0.66 3 -1.32 3 -2 3 C-2 2.34 -2 1.68 -2 1 C-1.34 0.67 -0.68 0.34 0 0 Z " fill="#787F40" transform="translate(382,104)"/>
<path d="M0 0 C-0.99 0.495 -0.99 0.495 -2 1 C-2 1.66 -2 2.32 -2 3 C-5.96 3 -9.92 3 -14 3 C-14 2.67 -14 2.34 -14 2 C-9.15758367 0.66416101 -5.06562383 -0.25328119 0 0 Z " fill="#6C7540" transform="translate(219,66)"/>
<path d="M0 0 C0.66 0.33 1.32 0.66 2 1 C0.54744301 4.82946843 -1.42895561 6.12050295 -5 8 C-4.45773019 4.20411134 -2.79872437 2.52788007 0 0 Z " fill="#8F9A5B" transform="translate(254,304)"/>
<path d="M0 0 C0.99 0 1.98 0 3 0 C3.66 0.66 4.32 1.32 5 2 C2.06279492 3.52299523 -0.9168649 4.80100302 -4 6 C-2.84826645 3.53199953 -1.95216435 1.95216435 0 0 Z " fill="#324615" transform="translate(129,251)"/>
<path d="M0 0 C0.66 0.33 1.32 0.66 2 1 C-0.25 3.5625 -0.25 3.5625 -3 6 C-4.32 5.67 -5.64 5.34 -7 5 C-4.69 3.35 -2.38 1.7 0 0 Z " fill="#6C743D" transform="translate(144,95)"/>
<path d="M0 0 C3.59391114 1.33488128 6.75490696 2.96022723 10 5 C9.01 5.495 9.01 5.495 8 6 C4.4375 4.75 4.4375 4.75 1 3 C0.67 2.01 0.34 1.02 0 0 Z " fill="#6E7240" transform="translate(360,89)"/>
<path d="M0 0 C1.98 0.99 1.98 0.99 4 2 C4 3.98 4 5.96 4 8 C3.01 8 2.02 8 1 8 C1.66 7.67 2.32 7.34 3 7 C3 6.34 3 5.68 3 5 C2.01 4.67 1.02 4.34 0 4 C0 2.66666667 0 1.33333333 0 0 Z " fill="#96A160" transform="translate(367,385)"/>
<path d="M0 0 C0.99 0.33 1.98 0.66 3 1 C0.36 3.64 -2.28 6.28 -5 9 C-5 4.61031544 -2.87194899 3.23094261 0 0 Z " fill="#30430B" transform="translate(250,305)"/>
<path d="M0 0 C2 3 2 3 2 5 C1.34 5 0.68 5 0 5 C0 6.65 0 8.3 0 10 C-0.99 9.01 -1.98 8.02 -3 7 C-2.67 6.01 -2.34 5.02 -2 4 C-1.34 4 -0.68 4 0 4 C0 2.68 0 1.36 0 0 Z " fill="#7B8040" transform="translate(444,182)"/>
<path d="M0 0 C0 3.19219704 -0.23605791 4.39608549 -2 7 C-4.625 8.25 -4.625 8.25 -7 9 C-6.02180976 7.68677212 -5.0424189 6.37443848 -4.0625 5.0625 C-3.51722656 4.33160156 -2.97195312 3.60070312 -2.41015625 2.84765625 C-1 1 -1 1 0 0 Z " fill="#676D39" transform="translate(107,127)"/>
<path d="M0 0 C1.32 0.33 2.64 0.66 4 1 C4.144375 1.7425 4.28875 2.485 4.4375 3.25 C4.90187492 5.52027739 5.41863569 7.75759479 6 10 C3.25722422 6.80009492 1.3697164 3.99500618 0 0 Z " fill="#6A6F3D" transform="translate(80,360)"/>
<path d="M0 0 C-1.98 1.32 -3.96 2.64 -6 4 C-6.99 3.34 -7.98 2.68 -9 2 C-3.375 -1.125 -3.375 -1.125 0 0 Z " fill="#919C5F" transform="translate(203,355)"/>
<path d="M0 0 C0 3 0 3 -1 6 C-2.65 6.33 -4.3 6.66 -6 7 C-4.02 4.69 -2.04 2.38 0 0 Z " fill="#334313" transform="translate(285,248)"/>
<path d="M0 0 C0.66 0.33 1.32 0.66 2 1 C2 3.31 2 5.62 2 8 C1.01 8.495 1.01 8.495 0 9 C-0.87890625 2.84765625 -0.87890625 2.84765625 -1 1 C-0.67 0.67 -0.34 0.34 0 0 Z " fill="#768144" transform="translate(454,304)"/>
<path d="M0 0 C-1.11666174 3.34998521 -1.74694925 3.79340222 -4.5625 5.6875 C-5.20316406 6.12449219 -5.84382813 6.56148438 -6.50390625 7.01171875 C-6.99761719 7.33785156 -7.49132812 7.66398437 -8 8 C-6.48291727 4.46014029 -4.24676932 0 0 0 Z " fill="#364712" transform="translate(279,296)"/>
<path d="M0 0 C0.99 0 1.98 0 3 0 C3 1.98 3 3.96 3 6 C2.67 5.34 2.34 4.68 2 4 C1.01 4.33 0.02 4.66 -1 5 C-1.33 4.01 -1.66 3.02 -2 2 C-1.34 2 -0.68 2 0 2 C0 1.34 0 0.68 0 0 Z " fill="#828E46" transform="translate(329,196)"/>
<path d="M0 0 C1.65 1.65 3.3 3.3 5 5 C4.01 5.66 3.02 6.32 2 7 C2 6.34 2 5.68 2 5 C1.01 4.67 0.02 4.34 -1 4 C-0.67 2.68 -0.34 1.36 0 0 Z " fill="#75774C" transform="translate(410,129)"/>
</svg>
