<?xml version="1.0" encoding="UTF-8"?>
<svg version="1.1" xmlns="http://www.w3.org/2000/svg" width="1024" height="1024">
<path d="M0 0 C337.92 0 675.84 0 1024 0 C1024 337.92 1024 675.84 1024 1024 C686.08 1024 348.16 1024 0 1024 C0 686.08 0 348.16 0 0 Z " fill="#F6F2EE" transform="translate(0,0)"/>
<path d="M0 0 C0.00496522 1.2454435 0.00496522 1.2454435 0.01003075 2.51604748 C0.09122936 22.71324862 0.18331154 42.91037452 0.28752708 63.10747051 C0.33766199 72.87460957 0.38410483 82.6417402 0.421875 92.40893555 C0.45480245 100.92140905 0.49463788 109.43381729 0.54279006 117.94621879 C0.56804752 122.45401309 0.58983106 126.96176414 0.60334396 131.46961021 C0.6161711 135.71229275 0.63823262 139.95482693 0.66738319 144.19742775 C0.67645385 145.75465415 0.68214801 147.31190444 0.68421364 148.86915588 C0.68753982 150.99579935 0.70302644 153.12202311 0.7215271 155.24858093 C0.72705786 156.43861567 0.73258862 157.62865042 0.73828697 158.85474682 C1.119262 163.43328434 2.03002292 166.08107435 5.375 169.25 C7.71959645 170.8130643 9.25140714 171.59280106 12 172 C12.1875 174.375 12.1875 174.375 12 177 C2.85451255 183.09699163 -14.40920714 180.08480172 -25 180 C-26.65 176.37 -28.3 172.74 -30 169 C-34.28145513 170.71258205 -36.66066687 172.11396372 -40.1875 174.875 C-49.06733857 181.32666607 -55.56413559 183.33064109 -66.5 183.4375 C-67.81750244 183.45296875 -67.81750244 183.45296875 -69.16162109 183.46875 C-80.79611895 183.31261135 -92.55249139 179.22520575 -101 171 C-116.03004642 152.257068 -117.36329391 133.25892663 -115.72265625 110.08203125 C-113.52259807 92.87967156 -105.07895114 78.22462021 -92 67 C-77.86870029 56.17453976 -61.07617342 55.71649677 -44 57 C-39.11608178 57.65075955 -34.42083222 58.78958389 -30 61 C-30.09378695 56.10668475 -30.19993625 51.2138496 -30.31738281 46.32104492 C-30.35558696 44.65770752 -30.39045463 42.99428992 -30.421875 41.33081055 C-30.46771234 38.9350932 -30.52567467 36.53992391 -30.5859375 34.14453125 C-30.59748871 33.4047554 -30.60903992 32.66497955 -30.62094116 31.90278625 C-30.73532022 27.87125785 -31.06783676 24.57549796 -33 21 C-35.5931354 19.11440211 -35.5931354 19.11440211 -38.625 17.6875 C-39.62789062 17.17574219 -40.63078125 16.66398437 -41.6640625 16.13671875 C-42.43492187 15.76160156 -43.20578125 15.38648438 -44 15 C-44 12.69 -44 10.38 -44 8 C-38.86084874 6.85126202 -33.71966783 5.71226841 -28.57641602 4.58203125 C-26.82908787 4.19664589 -25.08233098 3.80866045 -23.33618164 3.41796875 C-20.81804805 2.8550327 -18.29796996 2.30165341 -15.77734375 1.75 C-15.00414291 1.57500977 -14.23094208 1.40001953 -13.43431091 1.21972656 C-12.69407181 1.05956055 -11.9538327 0.89939453 -11.19116211 0.734375 C-10.54940536 0.59225586 -9.90764862 0.45013672 -9.2464447 0.30371094 C-6.16029275 -0.11352529 -3.11061817 -0.01757519 0 0 Z " fill="#265728" transform="translate(817,484)"/>
<path d="M0 0 C0 13.2 0 26.4 0 40 C-3.63 40 -7.26 40 -11 40 C-13.38912964 37.17648315 -14.51027694 35.27538436 -16 32 C-21.80195933 21.04717403 -27.46270851 13.44308857 -39.31640625 8.8828125 C-43.98111091 7.76486631 -48.4028413 7.49353575 -53.1875 7.4375 C-54.01862305 7.42275635 -54.84974609 7.4080127 -55.70605469 7.39282227 C-67.07101118 7.58103604 -77.26314695 13.8776165 -85.0625 21.875 C-93.20846912 31.55241132 -98.08322392 43.58055827 -100 56 C-100.18046875 57.11375 -100.3609375 58.2275 -100.546875 59.375 C-101.27793317 65.49643246 -101.261244 71.66653918 -101.29516602 77.82373047 C-101.30660873 79.26035471 -101.32693648 80.69693909 -101.35668945 82.13330078 C-101.73773082 100.62338619 -97.92626624 120.02128202 -85 134 C-76.22236557 143.05717693 -65.12892349 149.08861035 -52.38916016 149.43237305 C-42.85524685 149.79562683 -42.85524685 149.79562683 -34.5690918 145.8125 C-27.82153835 138.01822012 -28.43374227 127.10508586 -28.58837891 117.4362793 C-28.6253104 115.04237975 -28.62939431 112.65001664 -28.62890625 110.25585938 C-28.63872512 108.72394498 -28.65037673 107.19204098 -28.6640625 105.66015625 C-28.66628815 104.94972672 -28.66851379 104.23929718 -28.67080688 103.50733948 C-28.7404259 99.87943057 -28.83707388 96.99234207 -31 94 C-32.58873716 92.75388906 -32.58873716 92.75388906 -34.4765625 91.859375 C-35.146875 91.51132812 -35.8171875 91.16328125 -36.5078125 90.8046875 C-37.20648438 90.45664062 -37.90515625 90.10859375 -38.625 89.75 C-39.33140625 89.38648438 -40.0378125 89.02296875 -40.765625 88.6484375 C-42.50509952 87.75519383 -44.25187331 86.87619002 -46 86 C-46.04241723 83.66705225 -46.04092937 81.33297433 -46 79 C-45 78 -45 78 -42.60191345 77.87974548 C-41.53824051 77.88196609 -40.47456757 77.88418671 -39.37866211 77.88647461 C-37.57690773 77.88658791 -37.57690773 77.88658791 -35.73875427 77.88670349 C-34.4314888 77.89186478 -33.12422333 77.89702606 -31.77734375 77.90234375 C-30.43355868 77.90420802 -29.08977293 77.90563188 -27.74598694 77.90663147 C-24.20317723 77.91045598 -20.6604083 77.92028568 -17.11761475 77.93133545 C-13.50484773 77.94155101 -9.89207416 77.9461294 -6.27929688 77.95117188 C0.8138188 77.96190802 7.90690674 77.97898364 15 78 C15.07215293 80.33221749 15.06788794 82.66765447 15 85 C13.3203125 86.70703125 13.3203125 86.70703125 11.125 87.8125 C8.64878421 89.11273517 6.99784675 90.00215325 5 92 C4.6999547 94.56087656 4.6999547 94.56087656 4.75708008 97.57958984 C4.75400345 98.74775238 4.75092682 99.91591492 4.74775696 101.11947632 C4.75494247 102.38715851 4.76212799 103.6548407 4.76953125 104.9609375 C4.76998947 106.25818756 4.77044769 107.55543762 4.7709198 108.89199829 C4.77248522 111.64094377 4.78077708 114.38975913 4.79418945 117.13867188 C4.81114592 120.65820525 4.81500472 124.17759511 4.81424427 127.69716454 C4.81458213 131.05594132 4.82342624 134.41467131 4.83203125 137.7734375 C4.83370049 139.66888809 4.83370049 139.66888809 4.83540344 141.60263062 C4.84178329 142.77709747 4.84816315 143.95156433 4.85473633 145.16162109 C4.85854813 146.1948349 4.86235992 147.22804871 4.86628723 148.29257202 C4.98523997 150.70113756 5.35154545 152.69217629 6 155 C6.12205329 157.67540816 6.04467313 160.31961238 6 163 C3.85546875 163.7421875 3.85546875 163.7421875 1 164 C-1.82421875 162.3828125 -1.82421875 162.3828125 -4.6875 160.125 C-10.63026396 155.42876955 -10.63026396 155.42876955 -18 155 C-20.89466727 156.35623159 -20.89466727 156.35623159 -23.6875 158.25 C-40.64582797 168.61342265 -60.91462349 170.44801704 -80.3125 167 C-99.03562895 162.20829875 -114.85467456 150.39929318 -125 134 C-138.29897463 110.30935981 -141.50404025 80.00242438 -134.19921875 53.8125 C-131.16600562 44.16945109 -127.73238843 35.37284419 -122 27 C-121.44957031 26.19046875 -120.89914063 25.3809375 -120.33203125 24.546875 C-109.67954918 10.10129164 -92.09760201 -1.04313219 -75 -6 C-74.03835937 -6.29777344 -73.07671875 -6.59554688 -72.0859375 -6.90234375 C-47.59050024 -13.36890079 -23.43717517 -7.32411724 0 0 Z " fill="#275829" transform="translate(205,501)"/>
<path d="M0 0 C21.45 0 42.9 0 65 0 C65 1.65 65 3.3 65 5 C62.41015625 6.984375 62.41015625 6.984375 59.0625 8.75 C57.96035156 9.34296875 56.85820312 9.9359375 55.72265625 10.546875 C54.82417969 11.02640625 53.92570312 11.5059375 53 12 C51.62543801 13.16149062 51.62543801 13.16149062 51.69140625 16.34765625 C51.7745882 22.11280556 53.89614861 27.11306889 55.9375 32.4375 C56.77366221 34.68871863 57.60959364 36.94002299 58.4453125 39.19140625 C58.87360352 40.33109863 59.30189453 41.47079102 59.74316406 42.64501953 C61.63959771 47.70733329 63.48046618 52.7890866 65.3125 57.875 C65.67093994 58.86749756 66.02937988 59.85999512 66.39868164 60.88256836 C72.38330384 77.53672468 78.15224342 94.28724594 83.68359375 111.09765625 C85.27464556 115.89721442 87.14849024 120.5780506 89.01171875 125.27734375 C90 128 90 128 90 130 C90.66 130 91.32 130 92 130 C92.17305664 129.47140381 92.34611328 128.94280762 92.52441406 128.39819336 C94.49908909 122.41498007 96.60235722 116.48551481 98.75 110.5625 C103.690085 96.89070919 108.57625882 83.19985684 113.45849609 69.50732422 C116.26536646 61.63803262 119.07488566 53.7700203 121.9296875 45.91796875 C122.35056641 44.75845703 122.77144531 43.59894531 123.20507812 42.40429688 C123.9584495 40.33284004 124.71473228 38.26243856 125.47460938 36.19335938 C125.80009766 35.29810547 126.12558594 34.40285156 126.4609375 33.48046875 C126.87545166 32.34967896 126.87545166 32.34967896 127.29833984 31.19604492 C128.66176121 26.92883017 129.17612064 22.84470104 129.25 18.375 C129.27578125 17.43398438 129.3015625 16.49296875 129.328125 15.5234375 C129.20644041 12.99223209 129.20644041 12.99223209 127.74609375 11.30078125 C125.8403864 9.88109322 123.95829166 8.83263046 121.8125 7.8125 C121.09707031 7.46832031 120.38164063 7.12414062 119.64453125 6.76953125 C119.10183594 6.51558594 118.55914063 6.26164062 118 6 C118 4.02 118 2.04 118 0 C134.17 0 150.34 0 167 0 C167.33 1.32 167.66 2.64 168 4 C167.23816406 4.6084375 166.47632813 5.216875 165.69140625 5.84375 C151.80857802 17.41879514 146.05470397 32.39247985 140.06469727 49.0637207 C138.84380733 52.43075653 137.58893142 55.78449333 136.328125 59.13671875 C133.77964015 65.91659319 131.24389712 72.70113372 128.71484375 79.48828125 C128.3330748 80.51281906 127.95130585 81.53735687 127.55796814 82.59294128 C126.35094597 85.83271993 125.14417547 89.07259221 123.9375 92.3125 C123.52191833 93.42829437 123.10633667 94.54408875 122.67816162 95.69369507 C120.16959003 102.42924648 117.66157606 109.16500534 115.15386963 115.90087891 C114.07984061 118.78556006 113.00554741 121.67014266 111.93115234 124.5546875 C110.43088298 128.58285523 108.9315699 132.61137742 107.43313599 136.64022827 C106.90502306 138.05979725 106.37661372 139.47925599 105.84786987 140.89859009 C105.35471797 142.22254583 104.86205278 143.54668299 104.36991882 144.87101746 C103.68484322 146.71363816 102.99724597 148.55532072 102.30957031 150.39697266 C101.39752797 152.90627932 100.52121075 155.40972031 99.68261719 157.94287109 C99.358423 158.90431282 99.358423 158.90431282 99.02767944 159.88517761 C98.43716263 161.6462317 97.86136685 163.41220268 97.28662109 165.1784668 C95.89430926 168.23177759 94.91556088 169.39857721 92 171 C88.5390625 171.3984375 88.5390625 171.3984375 84.625 171.375 C83.33851563 171.38273438 82.05203125 171.39046875 80.7265625 171.3984375 C76.70814438 170.96879531 74.34342944 170.25815322 71 168 C69.49609375 165.5390625 69.49609375 165.5390625 68.4375 162.625 C67.90962891 161.22121094 67.90962891 161.22121094 67.37109375 159.7890625 C67.16790527 159.2228418 66.9647168 158.65662109 66.75537109 158.07324219 C65.15969316 153.69363746 63.45120263 149.35578505 61.77371216 145.00701904 C60.31548365 141.22435601 58.8612277 137.44016433 57.40625 133.65625 C56.76173454 131.98046268 56.11720307 130.30468151 55.47265625 128.62890625 C47.86523438 108.84960938 47.86523438 108.84960938 46.97612 106.53691101 C46.26232173 104.68176751 45.54750916 102.82701419 44.83210754 100.9724884 C42.34069426 94.5087053 39.87492851 88.03604126 37.43693542 81.55192566 C35.66136919 76.83195994 33.87550029 72.11590668 32.09008789 67.3996582 C31.1574755 64.93136031 30.22777131 62.46196158 29.30102539 59.99145508 C19.5806985 31.07173278 19.5806985 31.07173278 0.73046875 8.125 C0.15941406 7.42375 -0.41164063 6.7225 -1 6 C-0.67 4.02 -0.34 2.04 0 0 Z " fill="#265728" transform="translate(438,494)"/>
<path d="M0 0 C0.56203125 0.53238281 1.1240625 1.06476562 1.703125 1.61328125 C2.24453125 2.11472656 2.7859375 2.61617187 3.34375 3.1328125 C11.07989752 11.16199591 13.806603 22.10868579 13.86083984 32.94213867 C13.86592056 33.66142044 13.87100128 34.38070221 13.87623596 35.1217804 C13.88689823 36.67627451 13.89553449 38.23078358 13.90235519 39.7852993 C13.91418249 42.24369114 13.93364092 44.70191034 13.95547485 47.16023254 C14.01699192 54.14704701 14.07126886 61.13383851 14.10449219 68.12084961 C14.12538298 72.39965283 14.16062843 76.67813218 14.20524979 80.95675087 C14.21944168 82.58784501 14.2281394 84.21899634 14.23130417 85.85014915 C14.23618816 88.12464997 14.25927485 90.3982819 14.28662109 92.67260742 C14.29470795 93.96768723 14.3027948 95.26276703 14.31112671 96.59709167 C14.44048615 97.59243423 14.56984558 98.58777679 14.703125 99.61328125 C17.98803873 101.80322373 19.53408139 101.96605464 23.390625 102.23828125 C24.38449219 102.31304688 25.37835937 102.3878125 26.40234375 102.46484375 C27.16160156 102.51382813 27.92085937 102.5628125 28.703125 102.61328125 C28.95703125 104.88671875 28.95703125 104.88671875 28.703125 107.61328125 C26.98046875 109.52734375 26.98046875 109.52734375 24.640625 111.23828125 C23.88652344 111.80804687 23.13242187 112.3778125 22.35546875 112.96484375 C16.53396531 116.582921 11.47047224 118.12226395 4.640625 118.05078125 C3.95935547 118.07076172 3.27808594 118.09074219 2.57617188 118.11132812 C-4.03080088 118.10498137 -7.52586435 115.3842919 -12.046875 110.86328125 C-14.71569437 107.00831994 -15.43052973 104.18128359 -16.296875 99.61328125 C-19.99636809 101.647034 -22.63240082 103.82767046 -25.484375 106.92578125 C-32.55182449 114.17050791 -39.68403251 118.65624624 -49.88037109 118.85571289 C-61.72188621 118.89830827 -68.3402066 117.36259451 -77.0625 109.01953125 C-84.81116576 100.67481428 -86.73768358 92.58585718 -86.5390625 81.30859375 C-86.04548993 73.77763165 -83.928859 68.04714726 -78.6796875 62.5234375 C-63.68938423 50.50662061 -34.93064789 43.61328125 -16.296875 43.61328125 C-16.55433708 40.77816937 -16.82743717 37.94597946 -17.109375 35.11328125 C-17.17962891 34.32179688 -17.24988281 33.5303125 -17.32226562 32.71484375 C-17.96375158 26.45394087 -18.73599882 20.09869883 -23.41796875 15.5546875 C-24.18238281 15.09964844 -24.94679688 14.64460937 -25.734375 14.17578125 C-26.49621094 13.70269531 -27.25804687 13.22960937 -28.04296875 12.7421875 C-35.32594308 9.09438927 -44.96522888 9.46477622 -52.71484375 11.51953125 C-57.19646817 13.22265771 -61.48893553 15.2308088 -65.8203125 17.28125 C-66.96757813 17.82394531 -68.11484375 18.36664062 -69.296875 18.92578125 C-70.328125 19.43753906 -71.359375 19.94929687 -72.421875 20.4765625 C-75.30706097 21.61730858 -77.23215139 21.85552962 -80.296875 21.61328125 C-78.99680092 12.30410882 -69.37755831 5.09346676 -62.296875 -0.38671875 C-45.36703564 -11.13109583 -16.16051578 -13.68211736 0 0 Z " fill="#265828" transform="translate(926.296875,548.38671875)"/>
<path d="M0 0 C9.05701604 8.34876597 13.63935748 21.14451469 14.68359375 33.09375 C14.92030947 39.57832612 14.92030947 39.57832612 14.375 42.5625 C6.53679574 49.66314075 -5.1572357 48.97528566 -15.04296875 48.85546875 C-16.39487736 48.84985795 -17.74679216 48.84559489 -19.09870911 48.84260559 C-22.61851511 48.83127329 -26.13793643 48.80191002 -29.65759277 48.76849365 C-33.26451416 48.73753865 -36.87149906 48.72404652 -40.47851562 48.70898438 C-47.52749898 48.67702606 -54.57622408 48.62597482 -61.625 48.5625 C-61.33495046 51.60105147 -61.0369496 54.63847279 -60.734375 57.67578125 C-60.65364746 58.53014771 -60.57291992 59.38451416 -60.48974609 60.26477051 C-59.48927823 70.1670203 -56.95336653 79.42975722 -49.625 86.5625 C-39.32975568 94.32612686 -30.3730365 96.61155717 -17.625 95.5625 C-8.33686299 93.40816822 -0.19565872 87.27216212 7.3125 81.625 C10.375 79.5625 10.375 79.5625 14.375 79.5625 C14.1574594 89.35182711 7.00928408 97.58052608 0.60546875 104.4921875 C-9.75846126 114.11194741 -20.54983466 117.14055739 -34.375 117.0625 C-35.52863037 117.05750488 -36.68226074 117.05250977 -37.87084961 117.04736328 C-46.44685254 116.87153855 -53.10175586 115.92111294 -60.625 111.5625 C-61.41003906 111.1396875 -62.19507813 110.716875 -63.00390625 110.28125 C-77.70397732 101.4867727 -86.66971713 87.92028779 -90.8984375 71.59375 C-91.13820313 70.5934375 -91.37796875 69.593125 -91.625 68.5625 C-91.8000708 67.92143311 -91.9751416 67.28036621 -92.15551758 66.61987305 C-96.10568208 49.30940176 -90.82469709 29.274714 -81.625 14.5625 C-72.51070368 2.11798002 -60.15665057 -6.22214229 -45.25 -10.046875 C-29.29046659 -12.42180557 -13.15161937 -9.67816685 0 0 Z " fill="#265728" transform="translate(673.625,550.4375)"/>
<path d="M0 0 C0.00586624 0.96307068 0.01173248 1.92614136 0.01777649 2.918396 C0.07523808 12.0388267 0.14811992 21.15902431 0.23571491 30.27921677 C0.28025251 34.9668884 0.31954426 39.65447644 0.34643555 44.34228516 C0.37263549 48.87473072 0.41315303 53.40685166 0.46318626 57.93909454 C0.47974298 59.65960878 0.49132639 61.38017901 0.49761391 63.10076141 C0.55016056 76.1703396 1.03797334 88.97924755 9 100 C13.34108886 104.03822219 16.22033083 105.415688 22.2265625 105.34765625 C30.15458412 104.35386199 38.60177279 100.99803024 44 95 C45.16198114 90.90405077 45.21267112 86.74591432 45.31640625 82.515625 C45.34784981 81.42834862 45.34784981 81.42834862 45.37992859 80.31910706 C45.44612742 77.96284574 45.50515325 75.60649251 45.5625 73.25 C45.58268188 72.44742767 45.60286377 71.64485535 45.62365723 70.81796265 C45.74452924 65.9601311 45.85326549 61.10214114 45.95318604 56.24383545 C45.99655199 54.16526636 46.04376421 52.08677849 46.09130859 50.00830078 C46.16309511 46.60964365 46.21198077 43.21168131 46.25 39.8125 C46.28202515 38.34828613 46.28202515 38.34828613 46.31469727 36.85449219 C46.3455242 30.4895711 45.99240722 23.34954441 41.54760742 18.37426758 C39.50320561 16.6293187 37.40449254 15.20224627 35 14 C35 12.02 35 10.04 35 8 C39.7485977 6.58620516 44.45536131 5.44064562 49.32421875 4.4921875 C49.99290482 4.36184113 50.66159088 4.23149475 51.35054016 4.09719849 C52.75105355 3.82513475 54.15187138 3.5546338 55.55297852 3.28564453 C57.69324018 2.87389569 59.83198118 2.45482075 61.97070312 2.03515625 C63.33845638 1.77039237 64.70629218 1.50605445 66.07421875 1.2421875 C67.30744873 1.0035498 68.54067871 0.76491211 69.8112793 0.51904297 C73 0 73 0 77 0 C77.13548123 14.03793966 76.95521072 28.05028875 76.57092285 42.0819397 C76.18393391 56.29912065 75.87426807 70.51365757 75.82275391 84.73648071 C75.81596869 86.39972683 75.80576697 88.06296285 75.79199219 89.72616577 C75.77421274 92.03108926 75.76983548 94.33564128 75.76953125 96.640625 C75.76542236 97.94547852 75.76131348 99.25033203 75.75708008 100.59472656 C75.99331596 103.90630256 76.42523638 106.09365165 78 109 C81.44450737 111.29633824 83.93812283 111.54016485 88 112 C88 114.31 88 116.62 88 119 C84.33560136 121.32934385 80.74371176 121.35425647 76.53125 121.40625 C75.4552655 121.42335022 75.4552655 121.42335022 74.35754395 121.4407959 C72.84470474 121.45963953 71.33178448 121.47274147 69.81884766 121.48046875 C67.50668973 121.49994365 65.19804702 121.56203979 62.88671875 121.625 C61.41408354 121.63805627 59.94142301 121.64855872 58.46875 121.65625 C57.78010864 121.6809436 57.09146729 121.70563721 56.38195801 121.7310791 C54.41992188 121.71289062 54.41992188 121.71289062 51 121 C47.96315634 117.56608719 46.52665033 114.68973042 46.25 110.125 C46.19328125 109.34382812 46.1365625 108.56265625 46.078125 107.7578125 C46.05234375 107.17773438 46.0265625 106.59765625 46 106 C45.29822632 106.55929199 45.29822632 106.55929199 44.58227539 107.12988281 C42.41671537 108.84655999 40.23980126 110.5482432 38.0625 112.25 C37.32708984 112.83652344 36.59167969 113.42304687 35.83398438 114.02734375 C22.95856558 124.03531119 9.99435088 125.61100585 -6 124 C-13.0020176 122.44381427 -19.19250052 118.11357982 -23.48120117 112.40257263 C-28.91830243 103.80167668 -29.54277546 94.59121285 -29.30065918 84.65933037 C-29.24859357 82.50027177 -29.22329815 80.34222011 -29.20410156 78.18263245 C-29.15887585 73.60046324 -29.08192689 69.01914089 -29 64.4375 C-28.90492177 59.11591562 -28.82359514 53.79482314 -28.77624512 48.47258186 C-28.75069132 46.36559523 -28.70069908 44.26016359 -28.64941406 42.15367126 C-28.56779962 34.11244007 -29.21602655 27.21704255 -33 20 C-35.30068019 17.50789479 -35.30068019 17.50789479 -38 16 C-39.66666667 14.66666667 -41.33333333 13.33333333 -43 12 C-42.67 10.68 -42.34 9.36 -42 8 C-35.53065255 6.09377499 -29.01598888 4.65450162 -22.41137695 3.28564453 C-20.4376046 2.87502176 -18.46591673 2.45524627 -16.49414062 2.03515625 C-15.23666016 1.77347656 -13.97917969 1.51179687 -12.68359375 1.2421875 C-10.97514282 0.88423096 -10.97514282 0.88423096 -9.23217773 0.51904297 C-6.08607146 0.01382188 -3.17860148 -0.03685305 0 0 Z " fill="#275829" transform="translate(267,543)"/>
<path d="M0 0 C1 1 1 1 1.11352539 4.23461914 C1.11336631 5.66814126 1.10767407 7.10166912 1.09765625 8.53515625 C1.0962413 9.28840683 1.09482635 10.04165741 1.09336853 10.81773376 C1.08775376 13.2326956 1.07519883 15.64756601 1.0625 18.0625 C1.0574869 19.69596221 1.05292366 21.32942586 1.04882812 22.96289062 C1.03862875 26.9753243 1.01905645 30.98755936 1 35 C11.23 35 21.46 35 32 35 C32 38.3 32 41.6 32 45 C24.92199281 48.30480483 18.73213959 48.36021102 11 48.1875 C9.84371094 48.17396484 8.68742187 48.16042969 7.49609375 48.14648438 C4.66356996 48.11137044 1.83203693 48.06219 -1 48 C-0.96187556 57.77123077 -0.90241584 67.54208039 -0.81609726 77.31301117 C-0.77667333 81.8506154 -0.74446003 86.38802706 -0.72900391 90.92578125 C-0.71380366 95.30915936 -0.67929888 99.69200784 -0.63169098 104.07514954 C-0.61691178 105.74314253 -0.60896098 107.41121116 -0.60811615 109.07926941 C-0.85516794 122.35371958 -0.85516794 122.35371958 5.52008057 133.6217041 C8.91392371 136.78249784 12.19183415 137.37946484 16.75 137.5625 C22.20730105 137.35682282 26.65345173 135.97459053 31.625 133.77734375 C34.24822898 132.918754 35.44764779 133.06059259 38 134 C37.1554977 141.4025905 31.22979001 146.21669802 25.82421875 150.875 C16.7180067 157.53402161 5.06112596 159.43581924 -6 158 C-14.17313007 155.57119248 -21.25083344 152.09302808 -26.125 144.875 C-26.84042969 143.85019531 -26.84042969 143.85019531 -27.5703125 142.8046875 C-31.76650899 134.57280477 -32.42978755 126.6302943 -32.328125 117.51171875 C-32.32625183 116.33269485 -32.32437866 115.15367096 -32.32244873 113.93891907 C-32.31575505 111.45038005 -32.30189445 108.96185106 -32.28125 106.47338867 C-32.25040622 102.73671233 -32.2402974 99.00046239 -32.234375 95.26367188 C-32.19864172 84.17465851 -32.05390306 73.09792265 -31.546875 62.01953125 C-31.5086261 61.17025558 -31.4703772 60.32097992 -31.43096924 59.44596863 C-31.2236471 55.45845398 -30.79243771 51.96218857 -30 48 C-34.95 48 -39.9 48 -45 48 C-45.33 46.35 -45.66 44.7 -46 43 C-44.43923746 40.80881181 -43.00788872 39.12344687 -41.125 37.25 C-40.62049316 36.72414307 -40.11598633 36.19828613 -39.59619141 35.65649414 C-36.57771954 32.52814723 -33.47338314 29.48644086 -30.375 26.4375 C-26.34562403 22.4654817 -22.81608231 18.20239869 -19.27734375 13.79296875 C-7.76146789 -0.33027523 -7.76146789 -0.33027523 0 0 Z " fill="#275829" transform="translate(408,509)"/>
<path d="M0 0 C3.74387712 0.11011403 5.01183763 1.01129956 7.75 3.625 C27.40726388 28.55122121 30.71650939 58.29018905 27.53515625 89.18359375 C25.65426003 104.00295779 20.73556409 117.6810527 14.5 131.1875 C14.14470215 131.96544922 13.7894043 132.74339844 13.42333984 133.54492188 C10.94130232 138.71330757 7.93522331 142.83588786 4 147 C-0.99899993 145.9605785 -2.30116912 143.42731856 -5.0703125 139.26171875 C-22.16849701 110.36094129 -28.7958767 73.28885394 -20.96484375 40.3046875 C-20.64644531 39.21414063 -20.32804687 38.12359375 -20 37 C-19.67128906 35.84757812 -19.34257812 34.69515625 -19.00390625 33.5078125 C-15.11716748 21.43067956 -8.91907514 9.14776937 0 0 Z " fill="#275829" transform="translate(509,275)"/>
<path d="M0 0 C4.51322825 2.51937057 7.46555925 6.43159549 9.28125 11.2734375 C10.07938752 15.35203818 10.41505602 19.23085494 10.44238281 23.38305664 C10.45199036 24.56771011 10.4615979 25.75236359 10.47149658 26.97291565 C10.47574646 28.23868942 10.47999634 29.5044632 10.484375 30.80859375 C10.49007507 32.12000839 10.49577515 33.43142303 10.50164795 34.78257751 C10.51211386 37.55044947 10.51798639 40.31829272 10.52148438 43.08618164 C10.52698338 46.62581104 10.55105936 50.16505857 10.57945633 53.70456791 C10.60258568 57.09340256 10.60453089 60.48218426 10.609375 63.87109375 C10.6217218 65.13889175 10.6340686 66.40668976 10.64678955 67.71290588 C10.64378845 68.8944072 10.64078735 70.07590851 10.63769531 71.29321289 C10.64134094 72.32990616 10.64498657 73.36659943 10.64874268 74.43470764 C9.91766714 80.08196565 6.46758181 83.47558418 2.22265625 86.9140625 C-4.2274188 91.43041283 -10.99163936 92.10819106 -18.71875 91.2734375 C-27.1907334 89.26115917 -33.73289734 84.31545042 -38.71875 77.2734375 C-44.60671892 67.47637627 -46.07855326 58.32754194 -45.96875 47.0234375 C-45.96125732 46.00854248 -45.95376465 44.99364746 -45.94604492 43.94799805 C-45.74161192 29.66395569 -43.91598484 15.39742608 -34.48828125 3.96484375 C-25.0149607 -5.09022865 -11.57425483 -4.79991156 0 0 Z " fill="#F4F1ED" transform="translate(777.71875,557.7265625)"/>
<path d="M0 0 C6.54632509 -0.36870107 11.5038397 0.80402949 17.625 3.0625 C18.50164307 3.38049561 19.37828613 3.69849121 20.28149414 4.02612305 C42.1528461 12.13855917 57.71769258 24.65750486 72 43 C72.77085937 43.969375 73.54171875 44.93875 74.3359375 45.9375 C79.9869548 53.3990374 84.51113302 61.28488947 88.875 69.5625 C89.4225293 70.59068848 89.97005859 71.61887695 90.53417969 72.67822266 C95.10634268 81.56164484 99.39228975 90.83552633 99 101 C90.8520666 97.25151436 83.48255862 92.57380092 76.0625 87.5625 C75.47550323 87.16837921 74.88850647 86.77425842 74.28372192 86.36819458 C59.8888999 76.69936797 45.63955349 66.92139704 33 55 C31.60820778 53.80776623 30.21250449 52.62007955 28.8125 51.4375 C24.80605748 47.93688088 21.38771583 44.09348996 18 40 C17.3503125 39.23816406 16.700625 38.47632813 16.03125 37.69140625 C6.6609094 26.42897764 -0.71246469 14.96175857 0 0 Z " fill="#265828" transform="translate(402,347)"/>
<path d="M0 0 C0.72723269 16.85468698 -11.4180011 31.40444265 -22.07958984 43.32519531 C-30.94804866 52.84944203 -40.47327073 61.36522932 -51 69 C-51.64372559 69.47211914 -52.28745117 69.94423828 -52.95068359 70.43066406 C-93.41142405 100 -93.41142405 100 -101 100 C-100.59216255 92.97723804 -97.63483043 87.36721759 -94.5625 81.125 C-94.02117432 80.01600342 -93.47984863 78.90700684 -92.92211914 77.7644043 C-83.52931541 58.74594017 -72.56234724 42.45226846 -58 27 C-57.34515625 26.29230469 -56.6903125 25.58460938 -56.015625 24.85546875 C-41.69395674 9.87500375 -20.90235367 -1.21368505 0 0 Z " fill="#265728" transform="translate(622,347)"/>
<path d="M0 0 C1.28817627 0.01208496 2.57635254 0.02416992 3.90356445 0.03662109 C28.23467436 0.54011807 50.08588027 9.65196174 71.8125 19.9375 C73.58683675 20.76713813 75.36157553 21.59591698 77.13671875 22.42382812 C86.8539949 26.96912562 96.49953626 31.63806528 106.0625 36.5 C105.7325 37.49 105.4025 38.48 105.0625 39.5 C97.38549113 39.57018549 89.70851641 39.6231532 82.03125763 39.65543652 C78.46456901 39.67094797 74.89810333 39.69191225 71.33154297 39.72631836 C40.67449825 40.01388505 40.67449825 40.01388505 28.0625 36.5 C26.6693457 36.11678589 26.6693457 36.11678589 25.24804688 35.72583008 C22.817603 34.9960944 20.44443415 34.1865601 18.0625 33.3125 C17.22855713 33.01206787 16.39461426 32.71163574 15.53540039 32.40209961 C3.00563667 27.76237478 -8.54474863 21.99319752 -18.9375 13.5 C-19.53691406 13.01402344 -20.13632812 12.52804687 -20.75390625 12.02734375 C-22.1875 10.75 -22.1875 10.75 -23.9375 8.5 C-23.77758789 6.49804688 -23.77758789 6.49804688 -22.9375 4.5 C-16.44533502 -0.63984007 -7.82548383 -0.11720136 0 0 Z " fill="#265728" transform="translate(383.9375,410.5)"/>
<path d="M0 0 C-1.11001157 5.82756075 -4.92506972 8.85643173 -9.67333984 12.16650391 C-17.63758373 17.39765391 -26.01953483 21.71847616 -34.8125 25.375 C-35.53203857 25.68429443 -36.25157715 25.99358887 -36.99291992 26.31225586 C-54.71211263 33.30682405 -72.97714804 33.53149983 -91.75 33.25 C-94.11587006 33.22987599 -96.48175692 33.2116358 -98.84765625 33.1953125 C-104.56547941 33.15185079 -110.28265745 33.0854202 -116 33 C-116.66 31.68 -117.32 30.36 -118 29 C-110.47376249 24.06968483 -102.54752153 19.93685413 -94.5625 15.8125 C-93.83678802 15.43760437 -93.11107605 15.06270874 -92.3633728 14.67645264 C-27.76352989 -18.54581718 -27.76352989 -18.54581718 0 0 Z " fill="#275829" transform="translate(659,417)"/>
<path d="M0 0 C0.14925086 4.28656134 0.2576289 8.57171473 0.32958984 12.86010742 C0.35961041 14.31610483 0.40044228 15.77192369 0.45263672 17.22729492 C0.92966862 30.87882555 0.92966862 30.87882555 -2.76953125 35.3203125 C-4.42285156 36.82348633 -4.42285156 36.82348633 -6 38 C-6.71285156 38.56332031 -7.42570313 39.12664063 -8.16015625 39.70703125 C-10.09434281 40.83100414 -12.02879595 41.94207917 -14 43 C-14.78375 43.433125 -15.5675 43.86625 -16.375 44.3125 C-21.85906868 45.7488037 -27.68284379 46.02893815 -32.875 43.5 C-36.77023517 40.87555077 -38.67584998 37.44536077 -40 33 C-41.16809977 25.51354241 -39.06846267 18.79218156 -35.5 12.25 C-29.3137632 6.68238688 -20.95463208 4.5410126 -13.125 2.1875 C-12.39966064 1.96835937 -11.67432129 1.74921875 -10.92700195 1.5234375 C-7.16249852 0.44150813 -3.89994133 -0.09895122 0 0 Z " fill="#F4F1ED" transform="translate(910,602)"/>
<path d="M0 0 C6.04177856 3.54173226 9.99762299 9.28991435 11.7890625 16.0078125 C12.70097134 27.63465023 12.70097134 27.63465023 11.13842773 31.31884766 C7.64447206 34.44183211 3.6341176 33.6843279 -0.87890625 33.5859375 C-1.85128738 33.58027771 -2.82366852 33.57461792 -3.82551575 33.56878662 C-6.9336555 33.54638179 -10.04064574 33.49617731 -13.1484375 33.4453125 C-15.25454065 33.42525283 -17.36066186 33.40700114 -19.46679688 33.390625 C-24.63195386 33.34650343 -29.79625074 33.2774471 -34.9609375 33.1953125 C-34.07884877 20.08620757 -31.12087586 9.18836685 -20.9609375 0.1953125 C-13.93185536 -4.63718147 -7.25317748 -3.56427622 0 0 Z " fill="#F4F1ED" transform="translate(646.9609375,554.8046875)"/>
<path d="M0 0 C0.33 0 0.66 0 1 0 C1.01458252 1.28688721 1.02916504 2.57377441 1.04418945 3.8996582 C1.10211148 8.6689855 1.17934463 13.43783762 1.26245117 18.20678711 C1.29572924 20.2718129 1.32375214 22.33693027 1.34643555 24.40209961 C1.37992855 27.36872432 1.43224145 30.33450748 1.48828125 33.30078125 C1.49467117 34.2258699 1.5010611 35.15095856 1.50764465 36.1040802 C1.52743881 36.96474594 1.54723297 37.82541168 1.56762695 38.7121582 C1.57873001 39.46938675 1.58983307 40.2266153 1.60127258 41.00679016 C2.10544292 43.5271016 3.00554099 44.42561548 5 46 C7.00889114 46.53419809 7.00889114 46.53419809 9.125 46.625 C13 47 13 47 14 48 C14.04092937 50.33297433 14.04241723 52.66705225 14 55 C13.01 55.495 13.01 55.495 12 56 C12 53.69 12 51.38 12 49 C10.948125 49.103125 9.89625 49.20625 8.8125 49.3125 C5 49 5 49 2.125 46.6875 C-1.45555283 42.15915378 -1.14668494 38.02578697 -1.1328125 32.5 C-1.13376923 31.66791016 -1.13472595 30.83582031 -1.13571167 29.97851562 C-1.13639187 28.22005131 -1.13454872 26.46158448 -1.13037109 24.703125 C-1.12502058 22.01035934 -1.13032148 19.31776047 -1.13671875 16.625 C-1.13605794 14.9166663 -1.13477672 13.2083327 -1.1328125 11.5 C-1.13483673 10.69369141 -1.13686096 9.88738281 -1.13894653 9.05664062 C-1.12519532 5.7809523 -1.04318612 3.12955837 0 0 Z " fill="#E9EAE6" transform="translate(343,606)"/>
<path d="M0 0 C0.99 0.495 0.99 0.495 2 1 C3.84938796 1.06231023 5.70118319 1.05776916 7.55126953 1.02172852 C8.71232208 1.00163223 9.87337463 0.98153595 11.0696106 0.96083069 C12.32796722 0.93379562 13.58632385 0.90676056 14.8828125 0.87890625 C16.16735321 0.85529526 17.45189392 0.83168427 18.77536011 0.80735779 C22.19164851 0.74450505 25.60778441 0.67544189 29.02392578 0.60510254 C32.50936941 0.53442976 35.99492123 0.46960649 39.48046875 0.40429688 C46.3204301 0.27526927 53.16024819 0.13968312 60 0 C60 0.33 60 0.66 60 1 C53.25528984 3.0475013 47.0834159 3.26277574 40.0625 3.1953125 C38.94182129 3.1924826 37.82114258 3.18965271 36.66650391 3.18673706 C33.11089089 3.17560251 29.55553602 3.15051014 26 3.125 C23.57943074 3.11496152 21.1588575 3.10583719 18.73828125 3.09765625 C12.82543376 3.07568521 6.91273533 3.04227491 1 3 C0.67 2.01 0.34 1.02 0 0 Z " fill="#215222" transform="translate(542,447)"/>
<path d="M0 0 C0.66 0.33 1.32 0.66 2 1 C2.08153933 2.58246707 2.13943557 4.16616273 2.1875 5.75 C2.23970703 7.07257812 2.23970703 7.07257812 2.29296875 8.421875 C1.91831374 11.71883908 1.47826155 12.75899382 -1 15 C-4.08445633 15.57666264 -7.13375961 15.46389647 -10.26171875 15.390625 C-11.16751175 15.38496521 -12.07330475 15.37930542 -13.00654602 15.37347412 C-15.90073411 15.35107616 -18.7936859 15.30087392 -21.6875 15.25 C-23.64907067 15.2299394 -25.61066073 15.21168786 -27.57226562 15.1953125 C-32.38198706 15.15120018 -37.1907839 15.08214941 -42 15 C-42 14.34 -42 13.68 -42 13 C-40.79351807 12.97494385 -39.58703613 12.9498877 -38.34399414 12.92407227 C-33.88424339 12.83017477 -29.42465487 12.72991167 -24.96508789 12.62768555 C-23.03185815 12.58426959 -21.09858841 12.54259958 -19.1652832 12.50268555 C-16.39261798 12.44514369 -13.62015543 12.3814038 -10.84765625 12.31640625 C-9.97786636 12.29969376 -9.10807648 12.28298126 -8.21192932 12.26576233 C-4.28884034 12.54973787 -4.28884034 12.54973787 -1 11 C-0.76636119 9.15108054 -0.58696365 7.29511969 -0.4375 5.4375 C-0.35371094 4.42558594 -0.26992188 3.41367187 -0.18359375 2.37109375 C-0.09271484 1.19740234 -0.09271484 1.19740234 0 0 Z " fill="#F9F8F7" transform="translate(657,573)"/>
<path d="M0 0 C0.15595184 18.03043176 -0.27005816 35.98635554 -1 54 C-1.33 54 -1.66 54 -2 54 C-2 36.84 -2 19.68 -2 2 C-3.32 1.67 -4.64 1.34 -6 1 C-4 0 -4 0 0 0 Z " fill="#234F23" transform="translate(344,543)"/>
<path d="M0 0 C2.23571879 3.35357819 2.25648895 4.48981044 2.265625 8.41015625 C2.26820313 9.48330078 2.27078125 10.55644531 2.2734375 11.66210938 C2.26570312 12.78423828 2.25796875 13.90636719 2.25 15.0625 C2.25773438 16.15755859 2.26546875 17.25261719 2.2734375 18.38085938 C2.2572988 25.15508069 1.62785314 31.42091474 0 38 C-0.33 38 -0.66 38 -1 38 C-0.67 25.46 -0.34 12.92 0 0 Z " fill="#396439" transform="translate(535,331)"/>
<path d="M0 0 C0.38067627 0.64743164 0.76135254 1.29486328 1.15356445 1.96191406 C2.84297457 4.22516361 2.84297457 4.22516361 5.54370117 4.54589844 C6.53345947 4.5668457 7.52321777 4.58779297 8.54296875 4.609375 C10.15268555 4.65771484 10.15268555 4.65771484 11.79492188 4.70703125 C12.91447266 4.72121094 14.03402344 4.73539063 15.1875 4.75 C16.31865234 4.77964844 17.44980469 4.80929687 18.61523438 4.83984375 C21.41022833 4.91060309 24.20438528 4.96326976 27 5 C23.69711664 7.20192224 22.72537273 7.23959968 18.89453125 7.1953125 C17.91162109 7.18886719 16.92871094 7.18242188 15.91601562 7.17578125 C14.89185547 7.15902344 13.86769531 7.14226563 12.8125 7.125 C11.77673828 7.11597656 10.74097656 7.10695313 9.67382812 7.09765625 C7.11565315 7.0740786 4.55794252 7.0411703 2 7 C0.5393715 4.35261084 0 3.10551666 0 0 Z " fill="#1C4E1C" transform="translate(790,657)"/>
<path d="M0 0 C2.04173535 3.37698788 2.23525039 5.94546223 2.1953125 9.859375 C2.18886719 10.97441406 2.18242187 12.08945312 2.17578125 13.23828125 C2.15902344 14.39714844 2.14226562 15.55601562 2.125 16.75 C2.11597656 17.92433594 2.10695313 19.09867188 2.09765625 20.30859375 C2.07410063 23.20593536 2.04120652 26.10286441 2 29 C1.67 29 1.34 29 1 29 C0.63661088 24.54236752 0.28584619 20.08383125 -0.0625 15.625 C-0.16626953 14.35398437 -0.27003906 13.08296875 -0.37695312 11.7734375 C-0.47041016 10.56171875 -0.56386719 9.35 -0.66015625 8.1015625 C-0.74918213 6.98088379 -0.83820801 5.86020508 -0.92993164 4.70556641 C-1 2 -1 2 0 0 Z " fill="#E7E9E4" transform="translate(312,568)"/>
<path d="M0 0 C7.26 0.66 14.52 1.32 22 2 C22 2.66 22 3.32 22 4 C19.4580411 4.05434116 16.91726318 4.0938339 14.375 4.125 C13.66214844 4.14175781 12.94929687 4.15851562 12.21484375 4.17578125 C7.7387836 4.21684602 4.22050722 3.69086567 0 2 C0 1.34 0 0.68 0 0 Z " fill="#E8EAE4" transform="translate(859,665)"/>
<path d="M0 0 C0.33 0 0.66 0 1 0 C1 10.23 1 20.46 1 31 C1.66 31 2.32 31 3 31 C2.67 33.64 2.34 36.28 2 39 C1.67 39 1.34 39 1 39 C0.08954273 34.36895437 -0.13279048 29.89822573 -0.09765625 25.1953125 C-0.0962413 24.4713327 -0.09482635 23.74735291 -0.09336853 23.00143433 C-0.08781075 20.70924593 -0.07526633 18.41715843 -0.0625 16.125 C-0.05747953 14.56250142 -0.05291759 13.00000129 -0.04882812 11.4375 C-0.03785519 7.62496165 -0.0206201 3.81249788 0 0 Z " fill="#D2D5CD" transform="translate(103,565)"/>
<path d="M0 0 C3.26068667 4.12556392 5.70488835 8.65187429 8.28125 13.22265625 C9.72428341 15.55446705 10.83765616 17.33798572 13 19 C13.99 19 14.98 19 16 19 C15.67 19.99 15.34 20.98 15 22 C12.15391165 21.6567218 11.155113 21.17450213 9.21875 18.99609375 C0 5.27272727 0 5.27272727 0 0 Z " fill="#174817" transform="translate(498,400)"/>
<path d="M0 0 C0.66 0 1.32 0 2 0 C3.1721449 2.95619219 4.33677476 5.91528789 5.5 8.875 C5.83386719 9.71675781 6.16773438 10.55851563 6.51171875 11.42578125 C6.82753906 12.23144531 7.14335937 13.03710938 7.46875 13.8671875 C7.76201172 14.61081543 8.05527344 15.35444336 8.35742188 16.12060547 C9 18 9 18 9 20 C8.34 20 7.68 20 7 20 C5.82685974 17.23174812 4.66129785 14.46071514 3.5 11.6875 C2.99919922 10.50897461 2.99919922 10.50897461 2.48828125 9.30664062 C2.17246094 8.54931641 1.85664063 7.79199219 1.53125 7.01171875 C1.23798828 6.31522217 0.94472656 5.61872559 0.64257812 4.90112305 C0 3 0 3 0 0 Z " fill="#E5E7E1" transform="translate(481,593)"/>
<path d="M0 0 C0.495 0.474375 0.99 0.94875 1.5 1.4375 C4.98145899 3.61341187 7.92721635 3.59939833 12 4 C13 5 13 5 13.0625 8.5625 C13.041875 9.696875 13.02125 10.83125 13 12 C12.01 12.495 12.01 12.495 11 13 C11 10.69 11 8.38 11 6 C9.39125 6.0928125 9.39125 6.0928125 7.75 6.1875 C3.9124411 5.99562206 2.56969002 5.77526522 0 3 C0 2.01 0 1.02 0 0 Z " fill="#E1E5DF" transform="translate(344,649)"/>
<path d="M0 0 C-1.423125 0.928125 -1.423125 0.928125 -2.875 1.875 C-7.10102791 4.59551583 -7.10102791 4.59551583 -8.625 9.125 C-8.74875 10.07375 -8.8725 11.0225 -9 12 C-9.66 12 -10.32 12 -11 12 C-11.43712969 6.75444371 -11.43712969 6.75444371 -11 4 C-7.39549938 0.3006441 -4.97746474 -1.49323942 0 0 Z " fill="#EBECE7" transform="translate(500,503)"/>
<path d="M0 0 C0 0.99 0 1.98 0 3 C-7.88644034 5.15408416 -14.91807467 4.937402 -23 4 C-23 3.67 -23 3.34 -23 3 C-21.38931641 2.92652344 -21.38931641 2.92652344 -19.74609375 2.8515625 C-18.30987358 2.77646602 -16.87367681 2.70092124 -15.4375 2.625 C-14.73302734 2.5940625 -14.02855469 2.563125 -13.30273438 2.53125 C-8.58704259 2.27047442 -4.49614504 1.45341877 0 0 Z " fill="#C7CFC3" transform="translate(290,664)"/>
<path d="M0 0 C0.66 0.33 1.32 0.66 2 1 C-1.27530896 5.63720719 -4.30435607 9.68542782 -9 13 C-9 8.86218946 -7.28490393 7.79080004 -4.5 4.8125 C-3.6646875 3.91144531 -2.829375 3.01039063 -1.96875 2.08203125 C-0.99421875 1.05142578 -0.99421875 1.05142578 0 0 Z " fill="#1E4F20" transform="translate(390,522)"/>
<path d="M0 0 C1.70637434 3.31661492 3.21785811 6.69723926 4.6875 10.125 C5.14511719 11.17945313 5.60273438 12.23390625 6.07421875 13.3203125 C6.37972656 14.20460938 6.68523437 15.08890625 7 16 C6.67 16.66 6.34 17.32 6 18 C3.80595683 14.53870775 2.15679205 11.16018124 0.75 7.3125 C0.39421875 6.35988281 0.0384375 5.40726563 -0.328125 4.42578125 C-1 2 -1 2 0 0 Z " fill="#E1E4DF" transform="translate(499,637)"/>
<path d="M0 0 C2.45840605 -0.02691685 4.91651882 -0.04679802 7.375 -0.0625 C8.07367187 -0.07087891 8.77234375 -0.07925781 9.4921875 -0.08789062 C14.7734375 -0.11328125 14.7734375 -0.11328125 17 1 C17 1.66 17 2.32 17 3 C11.39 2.67 5.78 2.34 0 2 C0 1.34 0 0.68 0 0 Z " fill="#DFE3DC" transform="translate(877,558)"/>
<path d="M0 0 C0.66 0.66 1.32 1.32 2 2 C-3.94 7.445 -3.94 7.445 -10 13 C-10.66 12.34 -11.32 11.68 -12 11 C-8.17426612 7.07503959 -4.38002676 3.31820209 0 0 Z " fill="#E7E9E4" transform="translate(862,547)"/>
<path d="M0 0 C0.66 0.33 1.32 0.66 2 1 C2 4.96 2 8.92 2 13 C-0.64 13 -3.28 13 -6 13 C-3 11 -3 11 0 11 C0 7.37 0 3.74 0 0 Z " fill="#E4E7E1" transform="translate(908,579)"/>
<path d="M0 0 C3.98712321 1.83246572 7.58084504 4.23855775 11.25 6.625 C11.8996875 7.04523438 12.549375 7.46546875 13.21875 7.8984375 C14.81368881 8.93045673 16.40700669 9.96498028 18 11 C15 12 15 12 13.2824707 11.22729492 C12.66976318 10.81584229 12.05705566 10.40438965 11.42578125 9.98046875 C10.75869141 9.53509766 10.09160156 9.08972656 9.40429688 8.63085938 C8.71400391 8.15455078 8.02371094 7.67824219 7.3125 7.1875 C6.61060547 6.72279297 5.90871094 6.25808594 5.18554688 5.77929688 C3.41468278 4.57979029 1.70175941 3.29568152 0 2 C0 1.34 0 0.68 0 0 Z " fill="#1C4C1C" transform="translate(470,427)"/>
<path d="M0 0 C0.66 0.33 1.32 0.66 2 1 C0.68554313 6.98808129 -2.61191026 10.03429323 -7 14 C-7.66 13.67 -8.32 13.34 -9 13 C-8.51789062 12.48050781 -8.03578125 11.96101563 -7.5390625 11.42578125 C-2.8123208 6.30492579 -2.8123208 6.30492579 0 0 Z " fill="#FAF8F7" transform="translate(659,416)"/>
<path d="M0 0 C0.66 0 1.32 0 2 0 C2.66 3.63 3.32 7.26 4 11 C3.01 11.495 3.01 11.495 2 12 C1.34 9.36 0.68 6.72 0 4 C-0.99 4.33 -1.98 4.66 -3 5 C-1.125 1.125 -1.125 1.125 0 0 Z " fill="#E9EBE6" transform="translate(311,649)"/>
<path d="M0 0 C2.05078125 0.03255208 4.1015625 0.06510417 6.15234375 0.09765625 C5.19328125 0.25234375 5.19328125 0.25234375 4.21484375 0.41015625 C3.53421875 0.63703125 2.85359375 0.86390625 2.15234375 1.09765625 C1.82234375 2.08765625 1.49234375 3.07765625 1.15234375 4.09765625 C0.49234375 4.09765625 -0.16765625 4.09765625 -0.84765625 4.09765625 C-0.51765625 5.08765625 -0.18765625 6.07765625 0.15234375 7.09765625 C-1.16765625 6.43765625 -2.48765625 5.77765625 -3.84765625 5.09765625 C-2.72914438 0.14424653 -2.72914438 0.14424653 0 0 Z " fill="#1C4C1C" transform="translate(227.84765625,549.90234375)"/>
<path d="M0 0 C5.28137429 0.51525603 8.57221156 2.25477117 13 5 C12.67 5.99 12.34 6.98 12 8 C9 7 9 7 7.6875 5.625 C5.41275431 3.43450415 2.84353977 2.32698522 0 1 C0 0.67 0 0.34 0 0 Z " fill="#1F4E20" transform="translate(477,442)"/>
<path d="M0 0 C3.92247359 3.69833224 7.1189547 7.42422217 10 12 C9.67 12.99 9.34 13.98 9 15 C7.49105621 13.06891122 5.99288466 11.13093994 4.5 9.1875 C4.07074219 8.64029297 3.64148438 8.09308594 3.19921875 7.52929688 C0 3.33984375 0 3.33984375 0 0 Z " fill="#ECEDE9" transform="translate(472,386)"/>
<path d="M0 0 C2.23054053 3.34581079 2.29683128 4.64009811 2.3125 8.5625 C2.33763672 10.01849609 2.33763672 10.01849609 2.36328125 11.50390625 C2.18345703 12.73947266 2.18345703 12.73947266 2 14 C1.01 14.66 0.02 15.32 -1 16 C-1.02692484 13.70839681 -1.04636124 11.41670454 -1.0625 9.125 C-1.07410156 7.84882812 -1.08570313 6.57265625 -1.09765625 5.2578125 C-1 2 -1 2 0 0 Z " fill="#EDECE7" transform="translate(210,636)"/>
<path d="M0 0 C4.1314059 3.72636611 5.84377958 8.50047322 6.1875 14 C6.125625 14.66 6.06375 15.32 6 16 C4 15 4 15 2.9296875 12.3828125 C2.58164062 11.30773437 2.23359375 10.23265625 1.875 9.125 C1.52179688 8.05507813 1.16859375 6.98515625 0.8046875 5.8828125 C0 3 0 3 0 0 Z " fill="#205122" transform="translate(495,534)"/>
<path d="M0 0 C2.76122253 2.57830243 4.94735358 5.46417316 7.1875 8.5 C7.90292969 9.4590625 8.61835938 10.418125 9.35546875 11.40625 C11 14 11 14 11 17 C6.1754095 12.74300838 2.94136005 7.71088806 0 2 C0 1.34 0 0.68 0 0 Z " fill="#194A1A" transform="translate(408,368)"/>
<path d="M0 0 C0.43570313 0.37511719 0.87140625 0.75023437 1.3203125 1.13671875 C5.18607599 4.45859777 9.07657648 7.74642927 13 11 C12.01 11.33 11.02 11.66 10 12 C7.3125 10.1875 7.3125 10.1875 5 8 C5 7.34 5 6.68 5 6 C4.01 5.67 3.02 5.34 2 5 C0.8125 2.4375 0.8125 2.4375 0 0 Z " fill="#1B4C1B" transform="translate(115,631)"/>
<path d="M0 0 C3.0831351 1.19899698 6.06279492 2.47700477 9 4 C9.66 3.01 10.32 2.02 11 1 C12 2 12 2 12.0625 5.0625 C12.041875 6.031875 12.02125 7.00125 12 8 C10.37025436 7.23925157 8.74633352 6.46601567 7.125 5.6875 C6.22007812 5.25824219 5.31515625 4.82898438 4.3828125 4.38671875 C2 3 2 3 0 0 Z " fill="#1D4B1E" transform="translate(489,440)"/>
<path d="M0 0 C4.31392226 0.4793247 6.16569547 1.7457985 9 5 C8.67 5.99 8.34 6.98 8 8 C6.68 6.35 5.36 4.7 4 3 C0.64404172 3.59927826 -1.37801226 4.84622436 -4 7 C-2.79618552 4.50638429 -1.54571278 2.31856917 0 0 Z " fill="#134515" transform="translate(509,275)"/>
<path d="M0 0 C0.66 0 1.32 0 2 0 C1.36843005 5.05255964 -0.13459373 9.29593201 -2 14 C-2.66 13.67 -3.32 13.34 -4 13 C-3.52140759 11.39566191 -3.04210442 9.79153584 -2.5625 8.1875 C-2.29566406 7.29417969 -2.02882813 6.40085937 -1.75390625 5.48046875 C-1.19612127 3.64526945 -0.60655425 1.81966274 0 0 Z " fill="#E9EBE7" transform="translate(564,578)"/>
<path d="M0 0 C3.21043882 1.38188453 5.04936365 2.92421903 7.25 5.625 C8.03117188 6.57246094 8.03117188 6.57246094 8.828125 7.5390625 C9.40820312 8.26222656 9.40820312 8.26222656 10 9 C6 9 6 9 4.296875 7.5390625 C3.78640625 6.90742187 3.2759375 6.27578125 2.75 5.625 C2.22921875 4.99851562 1.7084375 4.37203125 1.171875 3.7265625 C0 2 0 2 0 0 Z " fill="#DEE3DA" transform="translate(594,647)"/>
<path d="M0 0 C1 3 1 3 -0.125 6 C-2.12296319 9.1967411 -3.65457282 10.37249489 -7 12 C-5.61735163 9.13132769 -4.07851447 6.43975968 -2.375 3.75 C-1.92898438 3.04359375 -1.48296875 2.3371875 -1.0234375 1.609375 C-0.68570313 1.07828125 -0.34796875 0.5471875 0 0 Z " fill="#E9ECE6" transform="translate(685,639)"/>
<path d="M0 0 C-0.33 0.99 -0.66 1.98 -1 3 C-2.62324086 3.22162329 -4.248721 3.42689803 -5.875 3.625 C-7.23238281 3.79902344 -7.23238281 3.79902344 -8.6171875 3.9765625 C-9.40351562 3.98429688 -10.18984375 3.99203125 -11 4 C-11.66 3.34 -12.32 2.68 -13 2 C-4.57142857 -0.28571429 -4.57142857 -0.28571429 0 0 Z " fill="#E8E9E4" transform="translate(910,602)"/>
<path d="M0 0 C1.6065676 0.25620684 3.2102483 0.53055871 4.8125 0.8125 C6.15248047 1.03873047 6.15248047 1.03873047 7.51953125 1.26953125 C10.18321256 2.05395393 11.25690322 2.88627799 13 5 C8.51474352 4.343621 4.33085971 3.29925791 0 2 C0 1.34 0 0.68 0 0 Z " fill="#E0E4DD" transform="translate(137,646)"/>
<path d="M0 0 C0.66 0 1.32 0 2 0 C0.55613418 3.71279784 -1.12236392 4.9486443 -4.625 6.75 C-5.44226563 7.17796875 -6.25953125 7.6059375 -7.1015625 8.046875 C-7.72804688 8.36140625 -8.35453125 8.6759375 -9 9 C-7.20035712 4.85299685 -4.83524325 3.36642668 -1 1 C-0.67 0.67 -0.34 0.34 0 0 Z " fill="#E9EBE6" transform="translate(904,636)"/>
<path d="M0 0 C1.109375 1.73828125 1.109375 1.73828125 2 4 C1.390625 6.10546875 1.390625 6.10546875 0.25 8.1875 C-0.11609375 8.88230469 -0.4821875 9.57710937 -0.859375 10.29296875 C-2 12 -2 12 -4 13 C-3.52140759 11.39566191 -3.04210442 9.79153584 -2.5625 8.1875 C-2.29566406 7.29417969 -2.02882813 6.40085937 -1.75390625 5.48046875 C-1.19612127 3.64526945 -0.60655425 1.81966274 0 0 Z " fill="#D7DCD4" transform="translate(556,599)"/>
<path d="M0 0 C4.50884026 2.31883213 6.93906776 5.06451569 10 9 C7 9 7 9 5.17578125 7.5390625 C4.56089844 6.90742187 3.94601563 6.27578125 3.3125 5.625 C2.68988281 4.99851562 2.06726563 4.37203125 1.42578125 3.7265625 C0 2 0 2 0 0 Z " fill="#E8EBE6" transform="translate(175,515)"/>
<path d="M0 0 C0.66 0 1.32 0 2 0 C0.4422692 3.82352106 -1.91595258 6.29205593 -5 9 C-5.99 9 -6.98 9 -8 9 C-7.04270084 7.87411986 -6.08412105 6.7493285 -5.125 5.625 C-4.59132813 4.99851562 -4.05765625 4.37203125 -3.5078125 3.7265625 C-2.38567993 2.44163349 -1.20628025 1.20628025 0 0 Z " fill="#E1E5DF" transform="translate(94,513)"/>
<path d="M0 0 C2 0 2 0 3.65625 1.64453125 C4.56890625 2.71767578 4.56890625 2.71767578 5.5 3.8125 C6.41265625 4.87404297 6.41265625 4.87404297 7.34375 5.95703125 C9 8 9 8 11 11 C8 11 8 11 5.95703125 9.1015625 C5.24933594 8.28429687 4.54164063 7.46703125 3.8125 6.625 C3.09707031 5.81289063 2.38164062 5.00078125 1.64453125 4.1640625 C0 2 0 2 0 0 Z " fill="#194A1A" transform="translate(420,385)"/>
<path d="M0 0 C3.43950364 0.61198376 5.51564485 1.92058847 8.25 4.0625 C8.95640625 4.61035156 9.6628125 5.15820312 10.390625 5.72265625 C11.18726563 6.35494141 11.18726563 6.35494141 12 7 C11.01 7.33 10.02 7.66 9 8 C6.73828125 6.6015625 6.73828125 6.6015625 4.3125 4.625 C3.50425781 3.97789062 2.69601563 3.33078125 1.86328125 2.6640625 C1.24839844 2.11492188 0.63351563 1.56578125 0 1 C0 0.67 0 0.34 0 0 Z " fill="#EAECE7" transform="translate(194,657)"/>
<path d="M0 0 C4 5 4 5 8 10 C7.67 10.66 7.34 11.32 7 12 C5.821389 10.76125579 4.65747085 9.5085199 3.5 8.25 C2.8503125 7.55390625 2.200625 6.8578125 1.53125 6.140625 C0 4 0 4 0 0 Z " fill="#E8EAE4" transform="translate(81,636)"/>
<path d="M0 0 C3.9252025 3.70090521 6.94580156 7.54959656 10 12 C9.01 12 8.02 12 7 12 C5.17578125 9.8828125 5.17578125 9.8828125 3.3125 7.125 C2.37857422 5.76761719 2.37857422 5.76761719 1.42578125 4.3828125 C0 2 0 2 0 0 Z " fill="#1A4B1B" transform="translate(81,634)"/>
<path d="M0 0 C0.66 0.33 1.32 0.66 2 1 C1.505 2.11375 1.01 3.2275 0.5 4.375 C-1.1274506 7.65415749 -1.1274506 7.65415749 -1 10 C-2.98 10.99 -2.98 10.99 -5 12 C-4.54738642 10.56068883 -4.08767021 9.12361001 -3.625 7.6875 C-3.24214844 6.48673828 -3.24214844 6.48673828 -2.8515625 5.26171875 C-2 3 -2 3 0 0 Z " fill="#E9EBE7" transform="translate(620,561)"/>
<path d="M0 0 C3.2578125 -0.29296875 3.2578125 -0.29296875 7.125 -0.1875 C9.04699219 -0.14689453 9.04699219 -0.14689453 11.0078125 -0.10546875 C11.99523437 -0.07066406 12.98265625 -0.03585937 14 0 C14 0.33 14 0.66 14 1 C8.72 1.66 3.44 2.32 -2 3 C-1.34 2.01 -0.68 1.02 0 0 Z " fill="#FAF9F9" transform="translate(608,345)"/>
<path d="M0 0 C0.66 0 1.32 0 2 0 C5 3.46153846 5 3.46153846 5 6 C6.32 6.66 7.64 7.32 9 8 C8.01 8.33 7.02 8.66 6 9 C4.99406757 7.8803014 3.9954151 6.7540588 3 5.625 C2.443125 4.99851562 1.88625 4.37203125 1.3125 3.7265625 C0 2 0 2 0 0 Z " fill="#E3E6E0" transform="translate(380,652)"/>
<path d="M0 0 C1.37432457 3.81756824 0.67975039 7.07255329 0 11 C-0.66 11 -1.32 11 -2 11 C-2.05399736 9.54207116 -2.09279177 8.08357288 -2.125 6.625 C-2.15980469 5.40683594 -2.15980469 5.40683594 -2.1953125 4.1640625 C-2 2 -2 2 0 0 Z " fill="#DFE3DC" transform="translate(872,624)"/>
<path d="M0 0 C1 2 1 2 0.546875 3.91015625 C0.28390625 4.62042969 0.0209375 5.33070313 -0.25 6.0625 C-0.62898437 7.13177734 -0.62898437 7.13177734 -1.015625 8.22265625 C-2 10 -2 10 -5 11 C-4.55123384 9.35153231 -4.09069512 7.70626545 -3.625 6.0625 C-3.36976563 5.14597656 -3.11453125 4.22945312 -2.8515625 3.28515625 C-2 1 -2 1 0 0 Z " fill="#E5E8E2" transform="translate(547,628)"/>
<path d="M0 0 C3.3 0.99 6.6 1.98 10 3 C10 3.66 10 4.32 10 5 C8.53984709 4.71758359 7.08190207 4.42373386 5.625 4.125 C4.81289063 3.96257812 4.00078125 3.80015625 3.1640625 3.6328125 C1 3 1 3 -1 1 C-0.67 0.67 -0.34 0.34 0 0 Z " fill="#E0E4DE" transform="translate(418,348)"/>
<path d="M0 0 C3.94139078 1.66751148 6.7892812 4.22710649 10 7 C9.34 7.66 8.68 8.32 8 9 C1.42857143 3.85714286 1.42857143 3.85714286 0 0 Z " fill="#ECEDE9" transform="translate(620,632)"/>
<path d="M0 0 C-1.49097658 3.7952131 -3.75700849 5.61042731 -7 8 C-7 5 -7 5 -4.625 2.3125 C-2 0 -2 0 0 0 Z " fill="#E1E5DE" transform="translate(723,552)"/>
<path d="M0 0 C-1.5830577 4.2742558 -4.50568404 6.26531794 -8 9 C-6.68994234 5.06982701 -4.75047804 0 0 0 Z " fill="#1E4D1E" transform="translate(402,510)"/>
<path d="M0 0 C0.66 0.33 1.32 0.66 2 1 C0.71186658 1.83878455 -0.58063256 2.67086783 -1.875 3.5 C-2.59429688 3.9640625 -3.31359375 4.428125 -4.0546875 4.90625 C-6 6 -6 6 -8 6 C-8 4.68 -8 3.36 -8 2 C-7.01 2.33 -6.02 2.66 -5 3 C-3.32260138 2.01810813 -1.65532623 1.01866229 0 0 Z " fill="#1D491E" transform="translate(529,441)"/>
<path d="M0 0 C5.53846154 -0.36923077 5.53846154 -0.36923077 7.875 1.5 C8.24625 1.995 8.6175 2.49 9 3 C6.08517222 3.80967438 4.53886783 4.21845993 1.6875 3.0625 C1.130625 2.711875 0.57375 2.36125 0 2 C0 1.34 0 0.68 0 0 Z " fill="#F8F7F4" transform="translate(479,440)"/>
<path d="M0 0 C-4.455 2.97 -4.455 2.97 -9 6 C-9.66 5.34 -10.32 4.68 -11 4 C-9.73760288 3.13341385 -8.46472499 2.28207941 -7.1875 1.4375 C-6.47980469 0.96183594 -5.77210938 0.48617187 -5.04296875 -0.00390625 C-3 -1 -3 -1 0 0 Z " fill="#E7EAE4" transform="translate(683,632)"/>
<path d="M0 0 C0.8353125 0.37125 0.8353125 0.37125 1.6875 0.75 C-2.8125 3.75 -2.8125 3.75 -7.3125 6.75 C-7.3125 5.76 -7.3125 4.77 -7.3125 3.75 C-3.21493902 -0.34756098 -3.21493902 -0.34756098 0 0 Z " fill="#E4E7E1" transform="translate(852.3125,607.25)"/>
<path d="M0 0 C0.99 0.33 1.98 0.66 3 1 C-1.455 3.97 -1.455 3.97 -6 7 C-6.66 6.67 -7.32 6.34 -8 6 C-6.7391988 4.96680187 -5.46596742 3.94875621 -4.1875 2.9375 C-3.47980469 2.36902344 -2.77210937 1.80054688 -2.04296875 1.21484375 C-1.36878906 0.81394531 -0.69460937 0.41304688 0 0 Z " fill="#174918" transform="translate(107,506)"/>
<path d="M0 0 C0 0.66 0 1.32 0 2 C-1.42578125 3.32421875 -1.42578125 3.32421875 -3.3125 4.6875 C-3.92738281 5.14511719 -4.54226562 5.60273438 -5.17578125 6.07421875 C-5.77777344 6.37972656 -6.37976563 6.68523437 -7 7 C-7.99 6.67 -8.98 6.34 -10 6 C-8.71283353 4.99421411 -7.42011342 3.99553202 -6.125 3 C-5.40570313 2.443125 -4.68640625 1.88625 -3.9453125 1.3125 C-2 0 -2 0 0 0 Z " fill="#ECEEE9" transform="translate(107,505)"/>
<path d="M0 0 C4.1424367 1.38081223 5.32203099 3.59825558 8 7 C3.75177626 6.52797514 1.80010291 4.03344482 -1 1 C-0.67 0.67 -0.34 0.34 0 0 Z " fill="#E8EBE6" transform="translate(713,652)"/>
<path d="M0 0 C0.9075 0.226875 1.815 0.45375 2.75 0.6875 C2.75 1.0175 2.75 1.3475 2.75 1.6875 C1.079375 2.120625 1.079375 2.120625 -0.625 2.5625 C-4.25291092 3.37991329 -4.25291092 3.37991329 -6.25 5.6875 C-6.58 4.6975 -6.91 3.7075 -7.25 2.6875 C-4.61280971 0.1517401 -3.74095095 -0.35970682 0 0 Z " fill="#ECEDE8" transform="translate(229.25,548.3125)"/>
<path d="M0 0 C-1.39332574 3.36720387 -2.9789286 4.9859524 -6 7 C-6.33 6.34 -6.66 5.68 -7 5 C-2.25 0 -2.25 0 0 0 Z " fill="#E3E6E0" transform="translate(568,369)"/>
<path d="M0 0 C3.34249629 0.59687434 5.46436342 1.73603877 8 4 C8 4.66 8 5.32 8 6 C4.08597051 4.73058503 2.20927127 3.48832306 0 0 Z " fill="#E7E9E4" transform="translate(913,660)"/>
<path d="M0 0 C0.66 0.99 1.32 1.98 2 3 C1.3125 5.625 1.3125 5.625 0 8 C-0.99 8.33 -1.98 8.66 -3 9 C-2.01 6.03 -1.02 3.06 0 0 Z " fill="#DBDFD8" transform="translate(540,643)"/>
<path d="M0 0 C0.66 0.33 1.32 0.66 2 1 C1.67 3.64 1.34 6.28 1 9 C0.34 9 -0.32 9 -1 9 C-0.67 6.03 -0.34 3.06 0 0 Z " fill="#E0E5DE" transform="translate(614,573)"/>
<path d="M0 0 C0.66 0.66 1.32 1.32 2 2 C1.96712417 4.72869407 1.43602229 7.2966618 1 10 C0.34 9.67 -0.32 9.34 -1 9 C-0.67 6.03 -0.34 3.06 0 0 Z " fill="#E7E9E4" transform="translate(106,548)"/>
<path d="M0 0 C2.40072955 2.88087546 4.47291037 5.56404834 6 9 C5.01 9 4.02 9 3 9 C0.50022457 5.66696609 0 4.26696398 0 0 Z " fill="#E4E6E0" transform="translate(501,409)"/>
<path d="M0 0 C3.36720387 1.39332574 4.9859524 2.9789286 7 6 C3.75728494 5.4409112 2.06942576 4.5867822 0 2 C0 1.34 0 0.68 0 0 Z " fill="#DFE3DC" transform="translate(846,655)"/>
<path d="M0 0 C0.99 0.33 1.98 0.66 3 1 C4.1875 4.0625 4.1875 4.0625 5 7 C4.34 7.66 3.68 8.32 3 9 C2.01 6.03 1.02 3.06 0 0 Z " fill="#DFE4DC" transform="translate(614,620)"/>
<path d="M0 0 C0.33 1.32 0.66 2.64 1 4 C1.66 4 2.32 4 3 4 C2.67 6.64 2.34 9.28 2 12 C1.67 12 1.34 12 1 12 C0.67 8.04 0.34 4.08 0 0 Z " fill="#C7CEC2" transform="translate(103,592)"/>
<path d="M0 0 C0.66 0.66 1.32 1.32 2 2 C1.625 5.625 1.625 5.625 1 9 C0.34 9 -0.32 9 -1 9 C-0.67 6.03 -0.34 3.06 0 0 Z " fill="#DFE4DD" transform="translate(734,580)"/>
<path d="M0 0 C0 4.38968456 -2.12805101 5.76905739 -5 9 C-5.33 8.34 -5.66 7.68 -6 7 C-4.02 4.69 -2.04 2.38 0 0 Z " fill="#134815" transform="translate(90,520)"/>
<path d="M0 0 C0.33 0 0.66 0 1 0 C1.3125 2.1875 1.3125 2.1875 1 5 C-1.5 7.8125 -1.5 7.8125 -4 10 C-2.8905928 6.51329166 -1.73662334 3.22515763 0 0 Z " fill="#E5E8E2" transform="translate(524,403)"/>
<path d="M0 0 C3.91402949 1.26941497 5.79072873 2.51167694 8 6 C4.74456771 5.65120368 3.98126893 4.97866739 1.75 2.4375 C1.1725 1.633125 0.595 0.82875 0 0 Z " fill="#E7E9E5" transform="translate(431,400)"/>
<path d="M0 0 C0.33 0 0.66 0 1 0 C1.25 2.75 1.25 2.75 1 6 C-1 8.375 -1 8.375 -3 10 C-2.01 6.7 -1.02 3.4 0 0 Z " fill="#E8EAE5" transform="translate(528,393)"/>
<path d="M0 0 C0.66 0.33 1.32 0.66 2 1 C-0.475 4.465 -0.475 4.465 -3 8 C-3.33 7.01 -3.66 6.02 -4 5 C-2.0625 2.3125 -2.0625 2.3125 0 0 Z " fill="#1D4E1E" transform="translate(549,392)"/>
<path d="M0 0 C2.46800047 1.15173355 4.04783565 2.04783565 6 4 C5.67 4.99 5.34 5.98 5 7 C3.29115995 5.37660195 1.62553283 3.70680947 0 2 C0 1.34 0 0.68 0 0 Z " fill="#E0E4DE" transform="translate(421,389)"/>
</svg>
