<?xml version="1.0" encoding="UTF-8"?>
<svg version="1.1" xmlns="http://www.w3.org/2000/svg" width="342" height="224">
<path d="M0 0 C4.09894778 0.49506622 5.38354073 2.88133852 7.88256836 5.96044922 C10.55999133 9.63847125 12.7639216 13.46058815 14.84545898 17.50097656 C15.27656982 18.32960205 15.70768066 19.15822754 16.15185547 20.01196289 C19.49747843 26.66262067 21.58721145 32.90334666 22.59545898 40.31347656 C22.77463867 41.45816406 22.95381836 42.60285156 23.13842773 43.78222656 C26.75314154 73.67163426 23.1187241 107.19250938 4.38452148 131.78613281 C2.59545898 133.31347656 2.59545898 133.31347656 -1.40454102 133.31347656 C-13.60255338 122.0159886 -21.06238304 99.4971785 -22.40454102 83.31347656 C-22.46335449 82.61738281 -22.52216797 81.92128906 -22.58276367 81.20410156 C-24.85197138 52.65639089 -22.75858296 25.18038016 -4.36157227 1.90332031 C-2.40454102 0.31347656 -2.40454102 0.31347656 0 0 Z " fill="#265928" transform="translate(168.404541015625,39.6865234375)"/>
<path d="M0 0 C19.04204424 0.6681419 37.20847127 10.39849532 51 23 C51.80566406 23.71285156 52.61132812 24.42570312 53.44140625 25.16015625 C65.45067082 36.39836049 73.97842717 50.31943722 81.625 64.75 C82.21700195 65.84948975 82.80900391 66.94897949 83.41894531 68.08178711 C87.46538752 75.96389486 89.54818102 83.27596236 91 92 C90.01 92.495 90.01 92.495 89 93 C75.61810438 87.61006982 62.98889145 77.38025727 51.49609375 68.84375 C49.79815121 67.5895577 48.08094225 66.36112628 46.34765625 65.15625 C26.87240911 51.52078285 4.30287125 31.36495098 -0.5625 7.20703125 C-0.875 4.75 -0.875 4.75 -1 1 C-0.67 0.67 -0.34 0.34 0 0 Z " fill="#265928" transform="translate(70,104)"/>
<path d="M0 0 C1 1 1 1 1.375 3.8125 C1.22364586 13.02618328 -4.68266137 21.83668573 -10 29 C-10.75539063 30.03253906 -11.51078125 31.06507813 -12.2890625 32.12890625 C-27.55050265 52.67661628 -48.63130513 67.43037974 -70.17578125 80.85253906 C-72.22351132 82.14059197 -74.25227624 83.45605124 -76.28125 84.7734375 C-77.72895266 85.70345821 -79.17686556 86.63315176 -80.625 87.5625 C-81.30062988 88.00489014 -81.97625977 88.44728027 -82.67236328 88.90307617 C-86.14679075 91.11075781 -87.77918412 92 -92 92 C-90.15882875 85.26405068 -87.86367965 79.027616 -84.8125 72.75 C-84.41812744 71.93080078 -84.02375488 71.11160156 -83.61743164 70.26757812 C-69.53768825 41.36927845 -49.25702893 13.45187568 -17.8125 2.5625 C-17.07628418 2.30307617 -16.34006836 2.04365234 -15.58154297 1.77636719 C-10.38515636 0.08948482 -5.46347931 -0.58393545 0 0 Z " fill="#275928" transform="translate(268,104)"/>
<path d="M0 0 C1.79630859 0.01244751 1.79630859 0.01244751 3.62890625 0.02514648 C13.26403907 0.20768912 21.87836725 1.38461647 31 4.4375 C32.10335693 4.79956543 32.10335693 4.79956543 33.22900391 5.16894531 C45.04291179 9.11933722 56.38348562 14.11526185 67.67236328 19.35742188 C69.87013611 20.37724011 72.07277789 21.38559474 74.27734375 22.390625 C79.69043529 24.86837408 85.08509449 27.392851 90.375 30.125 C91.06335938 30.47949219 91.75171875 30.83398438 92.4609375 31.19921875 C94.41978753 32.77524784 94.64034433 33.99697935 95 36.4375 C92.74395845 37.56552077 91.49510939 37.5751685 88.99121094 37.59863281 C88.16143738 37.60824036 87.33166382 37.6178479 86.47674561 37.62774658 C85.57176331 37.63199646 84.66678101 37.63624634 83.734375 37.640625 C82.31865204 37.64917511 82.31865204 37.64917511 80.87432861 37.65789795 C78.86007815 37.66737084 76.84581204 37.67389096 74.83154297 37.67773438 C71.83140139 37.68724203 68.83200586 37.71815419 65.83203125 37.75 C36.06410627 37.91288226 4.54004502 33.26428177 -19 13.4375 C-20.76429873 11.49706593 -22.37665443 9.50142569 -24 7.4375 C-23.06164569 5.1063512 -22.47787391 3.72626105 -20.29296875 2.40600586 C-13.52607495 0.18463801 -7.08746255 -0.06328092 0 0 Z " fill="#275929" transform="translate(55,161.5625)"/>
<path d="M0 0 C1.6953125 1.484375 1.6953125 1.484375 2.765625 3.28125 C2.64882035 6.94112917 0.20028237 9.06575557 -2.3046875 11.484375 C-17.03127186 23.20428172 -35.65939069 30.6044514 -54.3046875 32.484375 C-56.04685547 32.67580078 -56.04685547 32.67580078 -57.82421875 32.87109375 C-66.6848463 33.61027936 -75.58969449 33.60532563 -84.47674561 33.65859985 C-85.899169 33.66742181 -87.32157832 33.67894013 -88.74395752 33.69320679 C-90.76022857 33.71104755 -92.77661942 33.71322868 -94.79296875 33.71484375 C-96.56474487 33.72100708 -96.56474487 33.72100708 -98.37231445 33.72729492 C-101.3046875 33.484375 -101.3046875 33.484375 -104.3046875 31.484375 C-104.3046875 30.164375 -104.3046875 28.844375 -104.3046875 27.484375 C-97.62108412 23.97741592 -90.93044282 20.48426792 -84.23193359 17.00585938 C-82.47572499 16.09304102 -80.72050524 15.17831085 -78.96728516 14.25976562 C-56.58323357 2.54773863 -24.8744442 -12.95710598 0 0 Z " fill="#275929" transform="translate(299.3046875,165.515625)"/>
<path d="M0 0 C1 1 1 1 1.375 3.8125 C1.22364586 13.02618328 -4.68266137 21.83668573 -10 29 C-10.75539063 30.03253906 -11.51078125 31.06507813 -12.2890625 32.12890625 C-27.55050265 52.67661628 -48.63130513 67.43037974 -70.17578125 80.85253906 C-72.22351132 82.14059197 -74.25227624 83.45605124 -76.28125 84.7734375 C-77.72895266 85.70345821 -79.17686556 86.63315176 -80.625 87.5625 C-81.30062988 88.00489014 -81.97625977 88.44728027 -82.67236328 88.90307617 C-86.14679075 91.11075781 -87.77918412 92 -92 92 C-90.15882875 85.26405068 -87.86367965 79.027616 -84.8125 72.75 C-84.41812744 71.93080078 -84.02375488 71.11160156 -83.61743164 70.26757812 C-69.53768825 41.36927845 -49.25702893 13.45187568 -17.8125 2.5625 C-17.07628418 2.30307617 -16.34006836 2.04365234 -15.58154297 1.77636719 C-10.38515636 0.08948482 -5.46347931 -0.58393545 0 0 Z M-16.25 4.5 C-22.72222222 7 -22.72222222 7 -26 7 C-27.03672132 7.9618778 -28.03365898 8.96743764 -29 10 C-30.1846576 10.80674646 -31.39531468 11.57620694 -32.625 12.3125 C-42.05397604 17.74068632 -42.05397604 17.74068632 -50 25 C-50 25.66 -50 26.32 -50 27 C-50.66 27 -51.32 27 -52 27 C-53.94195261 29.07229525 -53.94195261 29.07229525 -55.9375 31.6875 C-56.97197266 32.99267578 -56.97197266 32.99267578 -58.02734375 34.32421875 C-60.03688185 36.95345749 -60.03688185 36.95345749 -61.62890625 39.76953125 C-63 42 -63 42 -65 43 C-65 43.99 -65 44.98 -65 46 C-66.485 46.495 -66.485 46.495 -68 47 C-68.33 47.99 -68.66 48.98 -69 50 C-69.33 50.99 -69.66 51.98 -70 53 C-71.485 53.495 -71.485 53.495 -73 54 C-73.73789192 55.64348656 -74.46472463 57.29342286 -75.1171875 58.97265625 C-76.06273104 61.14405934 -77.20855147 63.01642785 -78.5 65 C-80.77297828 68.53499009 -82.42370871 72.09353897 -84 76 C-84.36480469 76.76957031 -84.72960937 77.53914063 -85.10546875 78.33203125 C-85.67201172 79.52892578 -85.67201172 79.52892578 -86.25 80.75 C-86.60578125 81.48734375 -86.9615625 82.2246875 -87.328125 82.984375 C-88.27864583 85.1640625 -88.27864583 85.1640625 -87 88 C-80.03935228 84.85936131 -80.03935228 84.85936131 -73.875 80.4375 C-70.43675138 77.52246313 -67.0772893 75.89804847 -63 74 C-63 73.34 -63 72.68 -63 72 C-62.45859375 71.92136719 -61.9171875 71.84273438 -61.359375 71.76171875 C-58.12145085 70.71636244 -55.93723393 68.89058116 -53.25 66.8125 C-52.17195363 65.98427265 -51.09382863 65.15614762 -50.015625 64.328125 C-49.02046875 63.55984375 -48.0253125 62.7915625 -47 62 C-45.6684802 61.01836862 -44.33542163 60.03881665 -43 59.0625 C-39.43000333 56.37743895 -35.95584231 53.57957183 -32.5 50.75 C-31.68789062 50.09463257 -31.68789062 50.09463257 -30.859375 49.42602539 C-29.53405824 48.32935139 -28.26176407 47.16923471 -27 46 C-27 45.34 -27 44.68 -27 44 C-26.34 43.67 -25.68 43.34 -25 43 C-23.46651721 41.64103671 -21.97136694 40.23848387 -20.5 38.8125 C-19.7059375 38.05582031 -18.911875 37.29914063 -18.09375 36.51953125 C-15.79808469 33.75702356 -15.10714873 31.3739403 -14 28 C-13.01 27.67 -12.02 27.34 -11 27 C-11 26.01 -11 25.02 -11 24 C-10.34 24 -9.68 24 -9 24 C-9 23.34 -9 22.68 -9 22 C-8.34 22 -7.68 22 -7 22 C-6.35309078 20.3962669 -5.70751236 18.79199694 -5.0625 17.1875 C-4.70285156 16.29417969 -4.34320313 15.40085937 -3.97265625 14.48046875 C-2.24707943 10.07990136 -1.91077107 6.7291332 -2 2 C-7.3796174 1.72412218 -11.24575588 2.5502945 -16.25 4.5 Z " fill="#214321" transform="translate(268,104)"/>
<path d="M0 0 C4.02715908 0.61244118 5.35270757 2.98654871 7.82519531 6.03295898 C10.50261828 9.71098102 12.70654855 13.53309792 14.78808594 17.57348633 C15.21919678 18.40211182 15.65030762 19.2307373 16.09448242 20.08447266 C19.44010538 26.73513044 21.52983841 32.97585642 22.53808594 40.38598633 C22.71726563 41.53067383 22.89644531 42.67536133 23.08105469 43.85473633 C26.69576849 73.74414402 23.06135105 107.26501915 4.32714844 131.85864258 C2.53808594 133.38598633 2.53808594 133.38598633 -1.46191406 133.38598633 C-13.65992642 122.08849837 -21.11975609 99.56968827 -22.46191406 83.38598633 C-22.52072754 82.68989258 -22.57954102 81.99379883 -22.64013672 81.27661133 C-23.42344967 71.42216241 -23.56238683 61.63742175 -23.14941406 51.76098633 C-23.11485107 50.85421143 -23.08028809 49.94743652 -23.04467773 49.01318359 C-23.00060791 48.17456787 -22.95653809 47.33595215 -22.91113281 46.47192383 C-22.85445435 45.35889893 -22.85445435 45.35889893 -22.79663086 44.22338867 C-22.46191406 42.38598633 -22.46191406 42.38598633 -20.46191406 40.38598633 C-19.75480728 38.73607051 -19.08247417 37.07036377 -18.46191406 35.38598633 C-17.80191406 35.71598633 -17.14191406 36.04598633 -16.46191406 36.38598633 C-16.95691406 38.86098633 -16.95691406 38.86098633 -17.46191406 41.38598633 C-18.12191406 41.38598633 -18.78191406 41.38598633 -19.46191406 41.38598633 C-19.48678578 46.36645145 -19.50485487 51.34687975 -19.5168457 56.32739258 C-19.52184893 58.01880524 -19.52865359 59.71021364 -19.53735352 61.40161133 C-19.54959592 63.84433043 -19.55518262 66.28699195 -19.55957031 68.72973633 C-19.56731224 69.84898499 -19.56731224 69.84898499 -19.57521057 70.99084473 C-19.57572314 75.87790548 -19.11739864 80.54330867 -18.46191406 85.38598633 C-18.42620547 87.38566753 -18.41192968 89.38661104 -18.46191406 91.38598633 C-17.80191406 91.71598633 -17.14191406 92.04598633 -16.46191406 92.38598633 C-16.79191406 95.02598633 -17.12191406 97.66598633 -17.46191406 100.38598633 C-16.80191406 100.38598633 -16.14191406 100.38598633 -15.46191406 100.38598633 C-15.00751953 101.61961914 -15.00751953 101.61961914 -14.54394531 102.87817383 C-9.85158622 117.86959224 -9.85158622 117.86959224 -0.46191406 129.38598633 C-0.46191406 130.04598633 -0.46191406 130.70598633 -0.46191406 131.38598633 C2.82623193 128.65992328 2.82623193 128.65992328 3.78808594 124.63598633 C3.70558594 123.89348633 3.62308594 123.15098633 3.53808594 122.38598633 C4.85808594 122.38598633 6.17808594 122.38598633 7.53808594 122.38598633 C7.82039063 121.67829102 8.10269531 120.9705957 8.39355469 120.24145508 C9.137156 118.38625864 9.88929678 116.53445408 10.65136719 114.68676758 C15.82767685 101.78814578 20.322675 88.38769736 20.53808594 74.38598633 C20.55863037 73.30776611 20.55863037 73.30776611 20.57958984 72.20776367 C20.73247458 63.13967241 20.63237822 54.07163314 20.22558594 45.01098633 C20.20318848 44.32818604 20.18079102 43.64538574 20.15771484 42.94189453 C19.90785218 38.41666694 18.69836183 35.32890634 16.53808594 31.38598633 C16.17880473 30.05940957 15.8433756 28.72601883 15.53808594 27.38598633 C12.42102813 19.25220457 8.30848293 10.95942068 2.53808594 4.38598633 C-1.29271936 3.94438385 -1.29271936 3.94438385 -2.94628906 5.69848633 C-3.57277344 6.53379883 -3.57277344 6.53379883 -4.21191406 7.38598633 C-4.95441406 8.37598633 -5.69691406 9.36598633 -6.46191406 10.38598633 C-7.27441406 8.76098633 -7.27441406 8.76098633 -7.46191406 6.38598633 C-3.66184437 0.57411503 -3.66184437 0.57411503 0 0 Z " fill="#1F411F" transform="translate(168.4619140625,39.614013671875)"/>
<path d="M0 0 C3.33303003 -0.1174875 6.66551837 -0.18767324 10 -0.25 C10.93457031 -0.28351563 11.86914062 -0.31703125 12.83203125 -0.3515625 C18.76520991 -0.43454402 24.31496688 -0.03050643 29 4 C29.83984375 5.95336914 29.83984375 5.95336914 30 8 C20.50442463 21.72182576 -0.84761339 30.38124289 -16.71020508 33.63598633 C-20.12855706 34.2278761 -23.54906439 34.65205728 -27 35 C-28.74216797 35.19142578 -28.74216797 35.19142578 -30.51953125 35.38671875 C-39.3801588 36.12590436 -48.28500699 36.12095063 -57.17205811 36.17422485 C-58.5944815 36.18304681 -60.01689082 36.19456513 -61.43927002 36.20883179 C-63.45554107 36.22667255 -65.47193192 36.22885368 -67.48828125 36.23046875 C-69.26005737 36.23663208 -69.26005737 36.23663208 -71.06762695 36.24291992 C-74 36 -74 36 -77 34 C-77 32.68 -77 31.36 -77 30 C-73.37576909 28.10269382 -69.75047293 26.20743162 -66.125 24.3125 C-65.11179688 23.78205078 -64.09859375 23.25160156 -63.0546875 22.70507812 C-56.73527746 19.40359147 -50.38986034 16.16304287 -44 13 C-43.34 13.66 -42.68 14.32 -42 15 C-49.05370557 19.65810745 -56.64717242 24.20453239 -65 26 C-65 26.66 -65 27.32 -65 28 C-67.97 29.32 -70.94 30.64 -74 32 C-74 32.33 -74 32.66 -74 33 C-72.84552368 32.95456055 -72.84552368 32.95456055 -71.66772461 32.90820312 C-68.09109046 32.76914894 -64.51433131 32.63388846 -60.9375 32.5 C-59.00753174 32.42736938 -59.00753174 32.42736938 -57.03857422 32.35327148 C-50.55822199 32.12104043 -44.10838154 31.9589316 -37.625 32.0625 C-19.69918658 32.10342651 -0.83568232 27.31917419 14 17 C17.59235023 14.86002574 21.22890943 12.81012348 25 11 C25 10.34 25 9.68 25 9 C26.5 7.375 26.5 7.375 28 6 C21.65319276 3.58504704 15.69013546 2.38351417 8.9375 1.8125 C7.6390918 1.6897168 7.6390918 1.6897168 6.31445312 1.56445312 C4.21050226 1.36684448 2.10535418 1.18204995 0 1 C0 0.67 0 0.34 0 0 Z " fill="#234522" transform="translate(272,163)"/>
<path d="M0 0 C4.62418393 1.43484663 8.96769015 3.25513484 13.3125 5.375 C13.94478516 5.66632813 14.57707031 5.95765625 15.22851562 6.2578125 C19.78823489 8.48635696 19.78823489 8.48635696 20.91796875 11.2265625 C20.94503906 11.81179687 20.97210938 12.39703125 21 13 C18.74395845 14.12802077 17.49510939 14.1376685 14.99121094 14.16113281 C14.16143738 14.17074036 13.33166382 14.1803479 12.47674561 14.19024658 C11.57176331 14.19449646 10.66678101 14.19874634 9.734375 14.203125 C8.31865204 14.21167511 8.31865204 14.21167511 6.87432861 14.22039795 C4.86007815 14.22987084 2.84581204 14.23639096 0.83154297 14.24023438 C-2.16859861 14.24974203 -5.16799414 14.28065419 -8.16796875 14.3125 C-24.03737781 14.39974862 -40.74323712 13.82545527 -56 9 C-56.33 8.01 -56.66 7.02 -57 6 C-53.0516328 6.4156176 -49.4933582 6.85106168 -45.6875 8 C-36.25807846 10.55713126 -26.08365136 10.26268306 -16.375 10.5625 C-15.05935059 10.6049585 -13.74370117 10.64741699 -12.38818359 10.69116211 C-2.92139023 10.98077163 6.5293889 11.12497874 16 11 C7.57412594 6.35800414 7.57412594 6.35800414 -1 2 C-0.67 1.34 -0.34 0.68 0 0 Z " fill="#264624" transform="translate(129,185)"/>
<path d="M0 0 C5.82111639 0.16558974 11.40797241 1.47490157 17 3 C14.33874255 4.79570284 13.21888938 5.03345719 9.984375 4.5390625 C8.91703125 4.23742187 7.8496875 3.93578125 6.75 3.625 C5.67234375 3.32851562 4.5946875 3.03203125 3.484375 2.7265625 C2.66453125 2.48679687 1.8446875 2.24703125 1 2 C2.93553812 9.60158266 4.85792157 16.61570565 9.046875 23.328125 C10 25 10 25 10 27 C10.66 27 11.32 27 12 27 C13.0064275 28.66279327 14.00585407 30.32983484 15 32 C15.99 32.66 16.98 33.32 18 34 C18.474375 34.804375 18.94875 35.60875 19.4375 36.4375 C21.04266645 39.06997297 22.54323683 40.2209646 25 42 C25 42.66 25 43.32 25 44 C25.66 44 26.32 44 27 44 C27.66 44.825 28.32 45.65 29 46.5 C32.67691634 51.09344974 37.37308236 54.41829973 42 58 C43.87748952 59.4968828 45.75259391 60.99676334 47.625 62.5 C48.88183594 63.50546875 48.88183594 63.50546875 50.1640625 64.53125 C50.76992187 65.0159375 51.37578125 65.500625 52 66 C51.01 66.33 50.02 66.66 49 67 C28.59714917 55.80331357 6.611071 32.11954172 0 10 C-0.62266451 6.90829775 -0.89443106 4.16706824 -1 1 C-0.67 0.67 -0.34 0.34 0 0 Z " fill="#20401F" transform="translate(70,104)"/>
<path d="M0 0 C0.66 0 1.32 0 2 0 C3.96179836 3.57682787 5.89907318 7.16586515 7.81665039 10.76660156 C8.46892546 11.98384055 9.12724573 13.1978639 9.79223633 14.40820312 C14.5942998 23.1616996 17.42926099 31.04723508 19 41 C18.01 41.495 18.01 41.495 17 42 C9.71066955 39.06401968 2.98815934 34.15887565 -3.5625 29.875 C-4.36042969 29.36042236 -5.15835938 28.84584473 -5.98046875 28.31567383 C-6.73070312 27.81704834 -7.4809375 27.31842285 -8.25390625 26.8046875 C-8.92752197 26.36108887 -9.6011377 25.91749023 -10.29516602 25.46044922 C-12.21643912 23.81458703 -13.02843944 22.31477323 -14 20 C-10.85982385 21.49394062 -7.98157558 23.23747745 -5.0625 25.125 C1.23957188 29.17024884 7.6130296 33.0906461 14 37 C13.73958665 35.47734784 13.46602684 33.95694316 13.1875 32.4375 C13.03667969 31.59058594 12.88585937 30.74367187 12.73046875 29.87109375 C11.1939334 23.83177031 8.22788613 18.29476729 5.4375 12.75 C5.13392578 12.13898438 4.83035156 11.52796875 4.51757812 10.8984375 C3.13594274 8.14118693 1.71372857 5.57059286 0 3 C0 2.01 0 1.02 0 0 Z " fill="#234222" transform="translate(142,155)"/>
<path d="M0 0 C1.24716797 0.01353516 2.49433594 0.02707031 3.77929688 0.04101562 C6.83248967 0.0761098 9.8847599 0.12527733 12.9375 0.1875 C13.4325 1.6725 13.4325 1.6725 13.9375 3.1875 C10.71258903 4.26247032 8.79898248 3.91215228 5.50390625 3.45703125 C-3.80514646 2.47936818 -12.29292896 2.79282734 -21.0625 6.1875 C-19.56978612 10.12205219 -17.41849526 11.53696495 -13.875 13.6875 C-12.88242187 14.29335937 -11.88984375 14.89921875 -10.8671875 15.5234375 C-9.94164062 16.07257813 -9.01609375 16.62171875 -8.0625 17.1875 C-7.42570312 17.57164062 -6.78890625 17.95578125 -6.1328125 18.3515625 C-1.24894909 21.2257979 3.85373959 23.69164982 8.9375 26.1875 C8.2775 26.8475 7.6175 27.5075 6.9375 28.1875 C-5.46063556 23.44758311 -16.71840315 17.84344753 -25.0625 7.1875 C-24.12969712 4.88389021 -23.53455359 3.4816103 -21.39282227 2.1472168 C-14.28217755 -0.24306342 -7.44221922 -0.15430439 0 0 Z " fill="#234622" transform="translate(56.0625,161.8125)"/>
<path d="M0 0 C13.22697093 0.29393269 23.79501998 12.62864039 32.4765625 21.54296875 C37.83283733 27.33179499 42.49039568 33.5366434 47 40 C46.01 40.66 45.02 41.32 44 42 C43.16094435 40.87926138 42.32892169 39.75325453 41.5 38.625 C41.0359375 37.99851563 40.571875 37.37203125 40.09375 36.7265625 C39 35 39 35 39 33 C38.34 33 37.68 33 37 33 C36.67 32.01 36.34 31.02 36 30 C35.01 29.34 34.02 28.68 33 28 C31.3125 26.5625 31.3125 26.5625 30 25 C30 24.01 30 23.02 30 22 C29.34 22 28.68 22 28 22 C26.17270951 20.06469234 24.53104622 18.00952377 22.8515625 15.9453125 C21.13990897 13.9237366 21.13990897 13.9237366 18.9609375 12.9921875 C17 12 17 12 15.69921875 10.109375 C13.29808867 7.1286618 10.20720469 5.83669246 6.8125 4.25 C6.15830078 3.93417969 5.50410156 3.61835937 4.83007812 3.29296875 C3.22444814 2.51945357 1.61279563 1.75846135 0 1 C0 0.67 0 0.34 0 0 Z " fill="#234121" transform="translate(96,113)"/>
<path d="M0 0 C5.35301595 -0.26730809 9.20436834 0.49990718 14.1875 2.4375 C14.8587793 2.69829346 15.53005859 2.95908691 16.22167969 3.2277832 C22.12804817 5.56443489 27.94706877 8.10636548 33.75 10.6875 C34.60746826 11.06769287 35.46493652 11.44788574 36.34838867 11.83959961 C37.15638916 12.20577393 37.96438965 12.57194824 38.796875 12.94921875 C39.51198242 13.27237061 40.22708984 13.59552246 40.96386719 13.9284668 C43.1668606 15.08781189 45.04888201 16.45934064 47 18 C40.78403253 17.70400155 36.9536821 16.67936042 31.671875 13.4765625 C28.25927767 11.59065345 24.74170923 10.13375159 21.125 8.6875 C20.46999512 8.42106689 19.81499023 8.15463379 19.14013672 7.88012695 C16.26852528 6.74600804 14.11661091 6 11 6 C11 5.01 11 4.02 11 3 C10.37351562 2.95101562 9.74703125 2.90203125 9.1015625 2.8515625 C8.28429687 2.77679688 7.46703125 2.70203125 6.625 2.625 C5.40683594 2.52058594 5.40683594 2.52058594 4.1640625 2.4140625 C2 2 2 2 0 0 Z " fill="#224120" transform="translate(82,167)"/>
<path d="M0 0 C0.66 0.33 1.32 0.66 2 1 C1.67 2.65 1.34 4.3 1 6 C0.34 6 -0.32 6 -1 6 C-0.99476318 6.69971924 -0.98952637 7.39943848 -0.98413086 8.12036133 C-0.96309174 11.35106475 -0.95025534 14.58175366 -0.9375 17.8125 C-0.92912109 18.91271484 -0.92074219 20.01292969 -0.91210938 21.14648438 C-0.89142843 28.15732634 -1.22322023 35.03175126 -2 42 C-6.68434481 34.97348279 -5.02140089 25.06540487 -4.6875 16.9375 C-4.65293701 15.99664551 -4.61837402 15.05579102 -4.58276367 14.08642578 C-4.53869385 13.20067871 -4.49462402 12.31493164 -4.44921875 11.40234375 C-4.41143311 10.60304443 -4.37364746 9.80374512 -4.3347168 8.98022461 C-4 7 -4 7 -2 5 C-1.29289322 3.35008418 -0.62056011 1.68437744 0 0 Z " fill="#1F451D" transform="translate(150,75)"/>
<path d="M0 0 C7.28571429 0.76691729 7.28571429 0.76691729 10.96875 1.96875 C16.47911613 3.59645928 22.23490757 3.72948194 27.9375 4.125 C29.09830078 4.21136719 30.25910156 4.29773438 31.45507812 4.38671875 C34.30297446 4.59767403 37.15118513 4.80190466 40 5 C40 5.33 40 5.66 40 6 C26.25051046 7.43094235 14.41269034 6.29310521 1 3 C0.67 2.01 0.34 1.02 0 0 Z " fill="#1E431E" transform="translate(72,191)"/>
<path d="M0 0 C0.33 0.99 0.66 1.98 1 3 C1.66 3 2.32 3 3 3 C3.65156409 7.72383963 4.11950637 12.21974517 4 17 C4.66 17.33 5.32 17.66 6 18 C6 21.3 6 24.6 6 28 C4 27 4 27 3.18359375 24.7421875 C1.00476229 16.36908651 -0.17654203 8.65055961 0 0 Z " fill="#254824" transform="translate(146,114)"/>
<path d="M0 0 C1.33224609 -0.01836914 1.33224609 -0.01836914 2.69140625 -0.03710938 C3.54347656 -0.03904297 4.39554688 -0.04097656 5.2734375 -0.04296875 C6.42078369 -0.04913208 6.42078369 -0.04913208 7.59130859 -0.05541992 C9.625 0.1875 9.625 0.1875 12.625 2.1875 C8.30501555 3.62749482 4.02731907 3.59781541 -0.5 3.8125 C-1.43199219 3.8640625 -2.36398438 3.915625 -3.32421875 3.96875 C-4.20980469 4.01257813 -5.09539062 4.05640625 -6.0078125 4.1015625 C-6.82137207 4.1423291 -7.63493164 4.1830957 -8.47314453 4.22509766 C-10.375 4.1875 -10.375 4.1875 -11.375 3.1875 C-12.72247084 2.95674918 -14.07877565 2.77596937 -15.4375 2.625 C-16.736875 2.480625 -18.03625 2.33625 -19.375 2.1875 C-19.375 1.8575 -19.375 1.5275 -19.375 1.1875 C-12.88527661 0.3647663 -6.53925374 0.00487277 0 0 Z " fill="#19421A" transform="translate(235.375,194.8125)"/>
<path d="M0 0 C-4.5592907 3.03952713 -8.47162419 5 -14 5 C-14.33 5.66 -14.66 6.32 -15 7 C-17.5625 7.625 -17.5625 7.625 -20 8 C-19 5 -19 5 -16.5234375 3.61328125 C-6.09998929 -0.6931806 -6.09998929 -0.6931806 0 0 Z " fill="#1F421E" transform="translate(253,168)"/>
<path d="M0 0 C7.59 0 15.18 0 23 0 C23.33 0.66 23.66 1.32 24 2 C17.73 1.67 11.46 1.34 5 1 C5 1.66 5 2.32 5 3 C2.69 3.33 0.38 3.66 -2 4 C-1.34 2.68 -0.68 1.36 0 0 Z " fill="#2C492B" transform="translate(267,162)"/>
<path d="M0 0 C0.66 0 1.32 0 2 0 C0.45730076 4.72065967 -1.07794619 9.41664092 -3 14 C-3.99 14 -4.98 14 -6 14 C-2.90009699 3.90882638 -2.90009699 3.90882638 0 0 Z " fill="#21411F" transform="translate(155,57)"/>
<path d="M0 0 C-1.32 0.33 -2.64 0.66 -4 1 C-4 1.66 -4 2.32 -4 3 C-8.455 4.485 -8.455 4.485 -13 6 C-13.33 5.34 -13.66 4.68 -14 4 C-12.42466914 3.13116294 -10.83935491 2.28040932 -9.25 1.4375 C-8.36828125 0.96183594 -7.4865625 0.48617187 -6.578125 -0.00390625 C-3.79298812 -1.07998186 -2.73019786 -1.06528748 0 0 Z " fill="#1B411B" transform="translate(211,188)"/>
<path d="M0 0 C0.33 0 0.66 0 1 0 C2.01593448 6.88577812 1.83854735 13.09811029 1 20 C-1.18994248 16.71508627 -1.35277339 15.16904361 -1.625 11.3125 C-1.69976562 10.31863281 -1.77453125 9.32476562 -1.8515625 8.30078125 C-1.90054688 7.54152344 -1.94953125 6.78226562 -2 6 C-1.67 6 -1.34 6 -1 6 C-0.67 4.02 -0.34 2.04 0 0 Z " fill="#143815" transform="translate(147,97)"/>
<path d="M0 0 C0 0.66 0 1.32 0 2 C-5.28 2.66 -10.56 3.32 -16 4 C-16 3.34 -16 2.68 -16 2 C-10.51324804 0.13216954 -5.77807024 -0.2358396 0 0 Z " fill="#1E3D1E" transform="translate(268,104)"/>
<path d="M0 0 C4.23429756 1.31061591 8.07407404 2.94356259 12 5 C12 5.33 12 5.66 12 6 C7.27536912 5.53680089 3.82942948 4.90108294 0 2 C0 1.34 0 0.68 0 0 Z " fill="#284926" transform="translate(101,172)"/>
<path d="M0 0 C0.99 0 1.98 0 3 0 C3 0.99 3 1.98 3 3 C5.31 3.33 7.62 3.66 10 4 C9.67 4.66 9.34 5.32 9 6 C3.375 6.25 3.375 6.25 0 4 C0 2.68 0 1.36 0 0 Z " fill="#263E22" transform="translate(195,193)"/>
<path d="M0 0 C3.77727089 1.81309003 7.37269822 3.9073259 11 6 C10.01 6.66 9.02 7.32 8 8 C6.84772177 7.23883449 5.7033614 6.46567307 4.5625 5.6875 C3.92441406 5.25824219 3.28632813 4.82898438 2.62890625 4.38671875 C1 3 1 3 0 0 Z " fill="#1B421C" transform="translate(128,175)"/>
<path d="M0 0 C1.9453125 0.77734375 1.9453125 0.77734375 4.125 1.9375 C5.21167969 2.50791016 5.21167969 2.50791016 6.3203125 3.08984375 C6.87460938 3.39019531 7.42890625 3.69054687 8 4 C7.67 4.99 7.34 5.98 7 7 C3.06326356 5.68775452 0.77280706 4.08089673 -2 1 C-1.34 0.67 -0.68 0.34 0 0 Z " fill="#284925" transform="translate(122,170)"/>
<path d="M0 0 C1.50560497 2.85410334 2.63216796 5.68124642 3.625 8.75 C3.88539063 9.54921875 4.14578125 10.3484375 4.4140625 11.171875 C4.60742188 11.77515625 4.80078125 12.3784375 5 13 C4.34 13 3.68 13 3 13 C2.29819469 11.5903653 1.61406042 10.17192359 0.9375 8.75 C0.55464844 7.96109375 0.17179688 7.1721875 -0.22265625 6.359375 C-1.08564091 3.74006478 -0.93045933 2.55144824 0 0 Z " fill="#1C401A" transform="translate(152,140)"/>
<path d="M0 0 C0.33 0 0.66 0 1 0 C0.25 6.625 0.25 6.625 -2 10 C-2.99 9.67 -3.98 9.34 -5 9 C-3.35 6.03 -1.7 3.06 0 0 Z " fill="#264925" transform="translate(160,47)"/>
<path d="M0 0 C1.2065625 0.0309375 1.2065625 0.0309375 2.4375 0.0625 C2.1075 1.0525 1.7775 2.0425 1.4375 3.0625 C0.4475 2.7325 -0.5425 2.4025 -1.5625 2.0625 C-1.5625 4.3725 -1.5625 6.6825 -1.5625 9.0625 C-3.71059171 5.84036243 -3.85636153 4.78474599 -3.5625 1.0625 C-2.5625 0.0625 -2.5625 0.0625 0 0 Z " fill="#273D1F" transform="translate(72.5625,103.9375)"/>
<path d="M0 0 C3.91211733 1.15585285 6.8745041 2.35534962 10 5 C9.01 5.495 9.01 5.495 8 6 C4.4375 4.75 4.4375 4.75 1 3 C0.67 2.01 0.34 1.02 0 0 Z " fill="#1B3E1C" transform="translate(55,184)"/>
<path d="M0 0 C0.33 0 0.66 0 1 0 C1.39253254 4.44870215 0.15305957 7.14243493 -2 11 C-2.95465783 8.83032311 -3.14401212 7.43671207 -2.3984375 5.17578125 C-1.64129615 3.4315257 -0.82390802 1.71372869 0 0 Z " fill="#2C4929" transform="translate(150,70)"/>
<path d="M0 0 C-2.39509338 2.89932357 -4.31245243 3.50168276 -8 4 C-7 1 -7 1 -5.125 -0.25 C-3 -1 -3 -1 0 0 Z " fill="#284725" transform="translate(241,172)"/>
<path d="M0 0 C2.9375 0.8125 2.9375 0.8125 6 2 C6.33 2.99 6.66 3.98 7 5 C1.25 3.25 1.25 3.25 -1 1 C-0.67 0.67 -0.34 0.34 0 0 Z " fill="#1F3D1B" transform="translate(129,185)"/>
<path d="" fill="#000000" transform="translate(0,0)"/>
<path d="" fill="#000000" transform="translate(0,0)"/>
<path d="" fill="#000000" transform="translate(0,0)"/>
</svg>
